<svg width="173" height="221" viewBox="0 0 173 221" fill="none" xmlns="http://www.w3.org/2000/svg">
<path d="M69.9899 217.924C69.5468 217.924 69.1555 217.63 69.0798 217.216C68.1827 212.326 69.809 198.41 69.8791 197.822C69.9345 197.353 70.42 197.019 70.8963 197.067C71.4021 197.118 71.7694 197.538 71.7141 198.004C71.6974 198.146 70.0453 212.274 70.9018 216.933C70.9867 217.394 70.6471 217.834 70.145 217.912C70.0914 217.921 70.0416 217.924 69.9899 217.924Z" fill="#1F1718"/>
<path d="M60.6729 218.079C60.3941 220.377 70.152 219.67 70.5231 217.424C70.8904 215.175 61.09 214.573 60.6729 218.079Z" fill="#1F1718"/>
<path d="M105.278 218.545C105.208 218.545 105.134 218.536 105.062 218.521C104.565 218.41 104.261 217.951 104.379 217.496C105.584 212.902 104.997 198.704 104.992 198.561C104.971 198.092 105.368 197.696 105.878 197.679C106.465 197.673 106.817 198.027 106.838 198.495C106.862 199.088 107.438 213.072 106.175 217.894C106.072 218.285 105.693 218.545 105.278 218.545Z" fill="#1F1718"/>
<path d="M114.498 219.291C114.602 221.606 104.918 220.277 104.72 218.009C104.523 215.745 114.342 215.769 114.498 219.291Z" fill="#1F1718"/>
<path d="M104.885 111.574C106.103 101.374 106.325 87.1109 99.0329 80.1239C91.3351 72.7629 76.2718 74.1739 69.4969 82.6739C62.8144 91.0736 55.6519 126.602 77.8039 130.852C98.7191 134.864 103.648 121.774 104.885 111.574ZM172.559 82.6739C173.131 98.4329 172.485 112.288 170.787 124.426L170.492 124.392C90.486 161.792 1.26877 122.692 1.26877 122.692L0.918053 122.726C0.622693 120.04 0.419633 117.269 0.271953 114.413C-3.88155 32.8809 40.3855 3.69186 75.3488 0.512857C140.882 -5.43714 171.082 41.5168 172.559 82.6739Z" fill="#74CE9E"/>
<path d="M170.492 124.392L170.787 124.426C163.255 178.01 134.864 198.07 97.2607 199.481C53.7874 201.113 7.74817 189.4 0.917969 122.726L1.26869 122.692C1.26869 122.692 90.4859 161.792 170.492 124.392Z" fill="#3274A1"/>
<path d="M90.1001 45.1616C90.1001 45.1616 87.7907 36.6497 77.0765 37.617C67.0232 38.5248 63.4235 50.9637 55.231 51.7372C47.0403 52.5124 42.7668 48.1111 42.2093 48.837C41.65 49.5629 54.812 65.4715 74.3463 60.8305C87.224 57.7705 90.1001 48.2556 90.1001 45.1616Z" fill="#2F1D19"/>
<path d="M87.8147 44.9492C87.8147 44.9492 90.1259 36.4373 100.838 37.4046C110.892 38.3124 114.491 50.7513 122.682 51.5248C130.874 52.3 134.808 47.8987 135.705 48.6246C136.604 49.3505 124.153 66.0326 103.568 60.6181C90.7775 57.2521 87.8147 48.0432 87.8147 44.9492Z" fill="#2F1D19"/>
<path d="M63.6542 36.7807C63.6542 34.6676 61.7934 32.9557 59.5007 32.9557C57.2079 32.9557 55.3472 34.6676 55.3472 36.7807C55.3472 38.8921 57.2079 40.6057 59.5007 40.6057C61.7934 40.6057 63.6542 38.8921 63.6542 36.7807Z" fill="#1A1719"/>
<path d="M122.49 37.4147C122.49 35.3016 120.629 33.5897 118.336 33.5897C116.044 33.5897 114.183 35.3016 114.183 37.4147C114.183 39.5261 116.044 41.2397 118.336 41.2397C120.629 41.2397 122.49 39.5261 122.49 37.4147Z" fill="#1A1719"/>
<path d="M33.773 110.148C33.4112 110.148 33.066 109.949 32.9202 109.621C23.7529 89.0319 34.7053 78.6143 35.176 78.1825C35.5378 77.8476 36.1211 77.851 36.4793 78.1825C36.8411 78.5123 36.8429 79.0495 36.483 79.3827C36.3777 79.4813 25.9534 89.4926 34.6277 108.976C34.8216 109.41 34.5963 109.906 34.1238 110.085C34.0093 110.129 33.8912 110.148 33.773 110.148Z" fill="#1F1718"/>
<path d="M37.0625 109.043C35.4103 108.808 32.9552 109.423 32.4069 110.998C31.8568 112.575 31.3196 117.235 32.2851 117.604C33.7729 118.172 34.5446 113.915 34.5446 113.915C34.5446 113.915 35.4436 118.085 36.3444 118.029C37.884 117.934 36.9592 113.631 36.9592 113.631C36.9592 113.631 39.6968 116.516 40.4518 116.138C41.2049 115.759 38.4488 111.502 38.4488 111.502C38.4488 111.502 41.8548 112.324 41.8548 111.123C41.8548 109.925 38.842 109.298 37.0625 109.043Z" fill="#1F1718"/>
<path d="M136.407 111.281C136.291 111.281 136.171 111.263 136.058 111.219C135.586 111.04 135.36 110.544 135.552 110.11C144.258 90.5585 133.806 80.6152 133.699 80.5183C133.339 80.1851 133.339 79.6479 133.699 79.3164C134.061 78.9832 134.644 78.9832 135.004 79.3164C135.475 79.7482 146.429 90.1658 137.262 110.754C137.116 111.083 136.769 111.281 136.407 111.281Z" fill="#1F1718"/>
<path d="M133.511 109.326C135.161 109.092 137.616 109.707 138.164 111.281C138.715 112.859 139.252 117.519 138.288 117.888C136.798 118.455 136.027 114.199 136.027 114.199C136.027 114.199 135.13 118.369 134.227 118.313C132.687 118.217 133.612 113.915 133.612 113.915C133.612 113.915 130.875 116.8 130.121 116.422C129.368 116.043 132.124 111.786 132.124 111.786C132.124 111.786 128.717 112.607 128.717 111.407C128.717 110.209 131.731 109.581 133.511 109.326Z" fill="#1F1718"/>
</svg>
