<svg width="130" height="214" viewBox="0 0 130 214" fill="none" xmlns="http://www.w3.org/2000/svg">
<path d="M86.7689 210.544C86.3687 210.544 86.0002 210.304 85.8827 209.932C84.589 205.838 84.483 193.84 84.4795 193.331C84.4758 192.862 84.8862 192.478 85.3959 192.476C85.3973 192.476 85.4003 192.476 85.4025 192.476C85.9087 192.476 86.3218 192.852 86.3255 193.32C86.3261 193.442 86.433 205.588 87.6552 209.458C87.7971 209.908 87.516 210.379 87.0263 210.51C86.9412 210.534 86.8533 210.544 86.7689 210.544Z" fill="#3D3942"/>
<path d="M87.6568 208.839C86.8241 208.045 85.1793 207.926 84.272 207.926C82.6078 207.926 80.2115 208.346 78.9352 209.527C78.3605 210.059 78.0584 210.707 78.062 211.399C78.0656 211.926 78.3685 213.148 81.1007 213.148C81.1015 213.148 81.1015 213.148 81.1015 213.148C83.5185 213.148 88.0679 212.057 88.1436 209.971C88.161 209.549 87.9915 209.158 87.6568 208.839Z" fill="#3D3942"/>
<path d="M115.173 209.454C114.772 209.454 114.403 209.213 114.286 208.84C112.992 204.748 112.885 192.75 112.882 192.242C112.878 191.772 113.288 191.388 113.799 191.385C113.8 191.385 113.803 191.385 113.805 191.385C114.312 191.385 114.724 191.762 114.728 192.23C114.729 192.352 114.835 204.499 116.059 208.366C116.201 208.817 115.92 209.289 115.43 209.42C115.345 209.442 115.257 209.454 115.173 209.454Z" fill="#3D3942"/>
<path d="M116.06 207.747C115.227 206.955 113.582 206.836 112.675 206.836C111.012 206.836 108.616 207.254 107.338 208.436C106.764 208.97 106.462 209.617 106.466 210.309C106.47 210.835 106.772 212.059 109.503 212.059C109.505 212.059 109.505 212.059 109.505 212.059C111.922 212.059 116.471 210.967 116.547 208.88C116.564 208.458 116.395 208.067 116.06 207.747Z" fill="#3D3942"/>
<path d="M123.883 114.514C124.913 122.231 125.836 129.734 126.617 136.796C126.617 136.796 122.48 131.696 113.977 134.802C107 137.335 104.303 151.901 93.8289 152.622C83.3551 153.356 80.4086 145.167 77.2481 140.245C74.5504 136.045 70.2549 136.764 69.0652 137.075C68.6201 130.714 68.1593 124.192 67.6807 117.734C69.8807 116.474 75.1714 115.055 78.616 120.237C82.378 125.875 87.3138 133.347 95.0179 130.977C102.722 128.606 104.107 116.247 110.036 113.336C115.451 110.672 122.676 113.924 123.883 114.514Z" fill="#E68220"/>
<path d="M126.617 136.796C129.547 162.643 130.808 182.587 129.191 184.942C121.823 195.616 87.7041 196.827 76.5207 191.252C73.1301 189.568 71.0886 164.931 69.0654 137.075C70.2552 136.764 74.5506 136.045 77.2484 140.245C80.4089 145.167 83.3553 153.356 93.8291 152.621C104.303 151.901 107.001 137.335 113.977 134.802C122.48 131.696 126.617 136.796 126.617 136.796Z" fill="#6BCDC8"/>
<path d="M121.114 94.7331C122.109 101.37 123.032 108.024 123.883 114.514C122.676 113.924 115.451 110.672 110.036 113.336C104.107 116.247 102.722 128.606 95.0179 130.977C87.3138 133.347 82.3779 125.875 78.616 120.236C75.1713 115.055 69.8807 116.474 67.6806 117.734C67.2718 112.16 66.8455 106.633 66.4014 101.305C66.7576 101.173 72.0994 99.0969 77.6389 103.512C79.5035 104.999 90.4728 113.336 95.817 106.961C102.367 99.131 98.3732 94.2264 104.497 92.2306C110.622 90.2212 115.167 98.7706 120.9 94.7654L121.114 94.7331Z" fill="#EBD432"/>
<path d="M121.115 94.733L120.9 94.7653C115.167 98.7705 110.623 90.2212 104.498 92.2306C98.3734 94.2264 102.368 99.1309 95.8173 106.961C90.4731 113.336 79.5038 104.999 77.6392 103.512C72.0997 99.0969 66.7579 101.173 66.4016 101.305C65.8334 94.4219 65.2305 87.8837 64.5737 81.9983C66.1535 81.9643 70.6452 82.1938 73.6804 86.0358C77.4437 90.7771 84.9532 93.866 89.0894 88.766C93.2429 83.6813 92.6401 77.6667 99.1724 76.0296C105.687 74.3959 111.422 84.4004 118.718 79.1202C119.553 84.2695 120.351 89.5004 121.115 94.733Z" fill="#D73D6F"/>
<path d="M62.0352 63.2949C65.1949 63.1164 69.543 73.1193 77.8349 72.2217C86.6396 71.2578 83.5684 61.481 92.2488 58.2102C100.877 54.9581 107.534 68.1672 116.125 63.7863C116.995 68.7724 117.864 73.9046 118.717 79.1202C111.422 84.4004 105.687 74.396 99.1721 76.0297C92.6398 77.6668 93.2425 83.6814 89.089 88.7661C84.9529 93.8661 77.4433 90.7771 73.6801 86.0358C70.6449 82.1938 66.1532 81.9643 64.5734 81.9983C63.7209 74.4775 62.7807 68.0363 61.6968 63.3613L62.0352 63.2949Z" fill="#6A4F9D"/>
<path d="M116.125 63.7864C107.534 68.1673 100.877 54.9582 92.2489 58.2103C83.5685 61.4811 86.6397 71.2579 77.835 72.2218C69.5431 73.1194 65.1951 63.1166 62.0353 63.2951L61.6969 63.3614C60.6508 58.768 59.4429 55.8729 58.0763 55.3017C49.3959 51.6552 33.2593 77.2402 20.9387 79.3159C12.2407 80.7728 -0.399213 64.3915 0.00967587 55.3017C0.417642 45.8361 30.4534 16.7525 45.8279 5.81638C54.5257 -0.363115 89.2846 -2.91315 99.5624 4.71985C104.675 8.51255 110.746 33.5247 116.125 63.7864Z" fill="#6BCDC8"/>
<path d="M48.8796 23.0067C48.8796 20.4023 46.5842 18.2909 43.7569 18.2909C40.9288 18.2909 38.6357 20.4023 38.6357 23.0067C38.6357 25.6111 40.9288 27.7225 43.7569 27.7225C46.5842 27.7225 48.8796 25.6111 48.8796 23.0067Z" fill="#3D3942"/>
<path d="M91.0536 23.0067C91.0536 20.4023 88.7605 18.2909 85.9325 18.2909C83.1035 18.2909 80.8105 20.4023 80.8105 23.0067C80.8105 25.6111 83.1035 27.7225 85.9325 27.7225C88.7605 27.7225 91.0536 25.6111 91.0536 23.0067Z" fill="#3D3942"/>
<path d="M57.6559 23.8617C57.6573 23.8821 57.7769 24.144 58.0509 24.6863C58.32 25.2116 58.7426 25.951 59.3381 26.7177C59.6381 27.1002 59.9936 27.4777 60.3822 27.8381C60.7782 28.1934 61.2353 28.4943 61.7084 28.7799C61.9607 28.8921 62.2182 29.0077 62.4785 29.1233C62.7612 29.1896 63.0244 29.3034 63.3107 29.3765L64.2042 29.5313C64.5198 29.5449 64.8349 29.5516 65.1502 29.5856L66.2023 29.5397C66.5829 29.5159 66.7705 29.4378 67.0655 29.4072C67.6278 29.2933 68.2277 29.1147 68.7499 28.8835C69.2683 28.6353 69.7645 28.3617 70.205 28.0404C70.6283 27.7038 71.0349 27.3688 71.3746 27.0118C72.736 25.5787 73.3469 24.2663 73.3317 24.3411C73.4585 23.86 73.985 23.5642 74.5071 23.6815C75.0291 23.7988 75.35 24.2834 75.2231 24.7645C75.2115 24.79 75.1805 25.203 74.9924 25.8847C74.7984 26.5647 74.45 27.527 73.7493 28.5895C73.398 29.1199 72.9596 29.674 72.413 30.2095C71.8512 30.7314 71.2044 31.2534 70.4329 31.6733C69.6504 32.0864 68.8256 32.4331 67.8803 32.6592C67.4109 32.7442 66.8382 32.8666 66.4358 32.8972L65.849 32.9381L65.554 32.9601L65.4061 32.9686L65.3319 32.9738L65.1739 32.9788L65.1299 32.9772C64.6583 32.9602 64.1876 32.9177 63.7196 32.882C63.2502 32.8089 62.7807 32.6984 62.3192 32.6015C61.8634 32.4689 61.4163 32.2988 60.9844 32.1288C60.5712 31.9197 60.1681 31.697 59.7852 31.4692C59.0468 30.9745 58.4151 30.4136 57.9256 29.822C57.4273 29.2372 57.045 28.6438 56.7653 28.0777C56.1863 26.9523 55.9562 25.9612 55.8386 25.2693C55.7305 24.5927 55.7362 24.1303 55.7362 24.1524C55.6491 23.6645 56.0074 23.2038 56.5374 23.1222C57.0674 23.0423 57.5685 23.3721 57.6559 23.8617Z" fill="#3D3942"/>
<path d="M49.3374 35.4065C49.3374 32.1697 45.6454 29.5466 41.091 29.5466C36.5367 29.5466 32.8433 32.1697 32.8433 35.4065C32.8433 38.6416 36.5367 41.2647 41.091 41.2647C45.6454 41.2647 49.3374 38.6416 49.3374 35.4065Z" fill="#F795B1"/>
<path d="M96.1587 35.8145C96.1587 32.5794 92.466 29.9563 87.9123 29.9563C83.3566 29.9563 79.6646 32.5794 79.6646 35.8145C79.6646 39.0496 83.3566 41.6727 87.9123 41.6727C92.466 41.6727 96.1587 39.0496 96.1587 35.8145Z" fill="#F795B1"/>
</svg>
