<svg width="188" height="215" viewBox="0 0 188 215" fill="none" xmlns="http://www.w3.org/2000/svg">
<path d="M77.1585 212.162C76.7228 212.162 76.3352 211.876 76.2521 211.468C75.2571 206.55 76.6453 192.483 76.7044 191.886C76.7524 191.42 77.2065 191.08 77.7086 191.118C78.2162 191.16 78.591 191.575 78.543 192.043C78.53 192.185 77.1179 206.469 78.0667 211.157C78.159 211.618 77.8304 212.062 77.3283 212.148C77.2711 212.157 77.2139 212.162 77.1585 212.162Z" fill="#3D3942"/>
<path d="M136.516 203.543C136.515 203.543 136.513 203.543 136.511 203.543C136.001 203.54 135.59 203.157 135.593 202.688C135.66 189.46 132.415 177.995 132.381 177.882C132.25 177.428 132.544 176.964 133.037 176.843C133.528 176.722 134.035 176.992 134.166 177.446C134.2 177.564 137.508 189.246 137.439 202.696C137.436 203.164 137.024 203.543 136.516 203.543Z" fill="#3D3942"/>
<path d="M73.7857 209.041C70.5182 208.906 67.1087 209.891 66.8558 212.391C66.8078 212.852 66.961 213.284 67.297 213.639C67.8877 214.265 69.0248 214.615 70.6751 214.683C73.2817 214.79 78.2881 214.044 78.6185 211.768C78.6868 211.288 78.5336 210.826 78.1754 210.43C77.1454 209.296 74.7622 209.08 73.7857 209.041Z" fill="#3D3942"/>
<path d="M145.94 204.145C144.5 202.273 141.043 200.917 138.719 200.821C136.539 200.733 136.011 201.767 135.883 202.215C135.706 202.846 135.909 203.53 136.481 204.244C137.94 206.059 141.835 208.009 144.198 208.106C145.913 208.176 146.398 207.264 146.529 206.868C146.823 205.967 146.62 205.025 145.94 204.145Z" fill="#3D3942"/>
<path d="M38.7153 93.961C38.5251 93.961 38.335 93.9083 38.1707 93.7978C37.759 93.5207 37.6704 92.9886 37.9713 92.6095C41.4787 88.2048 46.186 88.8831 50.7383 89.5393C53.1528 89.8861 55.6523 90.2483 58.0133 89.8641C61.0002 89.3813 61.7829 87.4704 63.016 83.8511C64.0498 80.8132 65.3383 77.0341 69.165 73.8075C77.3816 66.8834 86.5285 75.1251 86.619 75.2084C86.9808 75.5399 86.9808 76.077 86.6208 76.4085C86.2608 76.7434 85.6775 76.7417 85.3157 76.4119C84.9945 76.1161 77.3225 69.2413 70.4111 75.0621C66.9498 77.9793 65.7961 81.3691 64.7771 84.3594C63.64 87.6982 62.5656 90.8534 58.3346 91.5385C55.6689 91.972 53.0162 91.5895 50.4521 91.2189C46.0808 90.5865 42.3039 90.0442 39.4611 93.6142C39.2783 93.842 38.9995 93.961 38.7153 93.961Z" fill="#3D3942"/>
<path d="M39.3063 92.2236C38.6602 91.9856 31.9371 93.434 31.998 94.8671C32.057 96.3002 35.714 94.845 35.714 94.845C35.714 94.845 32.3229 97.4987 33.5136 98.4711C34.7061 99.4469 36.8973 96.2186 36.8973 96.2186C36.8973 96.2186 36.0463 100.158 37.4308 100.022C38.8153 99.8821 39.6755 95.5454 39.6755 95.5454C39.6755 95.5454 40.2459 98.3079 41.6175 98.0189C42.1953 97.8948 42.9115 93.5547 39.3063 92.2236Z" fill="#3D3942"/>
<path d="M40.3456 80.7113C33.9141 86.1292 7.99994 88.4123 2.07428 72.2589C-3.85138 56.1038 0.110153 11.3836 51.8849 1.86534C103.663 -7.65296 137.115 20.5517 133.81 56.9878C130.506 93.4239 106.346 123.784 110.772 128.24C115.201 132.696 148.063 103.643 160.954 103.695C170.084 103.731 192.306 127.301 186.006 140.342C178.109 156.684 105.399 196.888 79.2851 192.969C53.1716 189.052 41.2852 168.142 46.2269 151.246C51.1687 134.35 75.222 109.006 83.0232 83.4076C91.6016 55.2607 78.6888 41.8867 60.5925 45.9174C40.7794 50.3323 49.2174 73.2381 40.3456 80.7113Z" fill="#E8444D"/>
<path d="M44.2369 21.8844C43.9213 19.3531 41.4365 17.5375 38.6878 17.8299C35.941 18.1223 33.9695 20.4105 34.2851 22.9418C34.6027 25.4731 37.0874 27.2887 39.8361 26.9963C42.5848 26.7039 44.5544 24.414 44.2369 21.8844Z" fill="#3D3942"/>
<path d="M86.1817 16.7165C85.8641 14.1869 83.3776 12.3713 80.6307 12.6637C77.8821 12.9544 75.9124 15.2443 76.228 17.7739C76.5456 20.3069 79.0321 22.1209 81.779 21.8285C84.5258 21.5378 86.4973 19.2478 86.1817 16.7165Z" fill="#3D3942"/>
<path d="M55.5234 33.3544C55.5234 33.3544 62.8077 26.7771 70.5572 31.6034L70.6089 31.6918C68.5396 32.8308 65.8185 33.7063 62.457 34.0633C59.8006 34.3455 57.4488 34.0786 55.481 33.4717L55.5234 33.3544Z" fill="#F57998"/>
<path d="M74.3339 22.2618C76.8629 24.6129 75.6556 28.936 70.6086 31.6917L70.557 31.6034C62.8074 26.7771 55.5231 33.3543 55.5231 33.3543L55.4807 33.4716C49.2689 31.6169 46.5608 26.4864 48.8037 24.4175C51.0281 22.3639 54.111 25.111 62.453 24.176C69.1042 23.4263 71.6461 19.7696 74.3339 22.2618Z" fill="#3D3942"/>
<path d="M85.7533 59.9151C85.7533 59.9151 86.0412 60.0392 86.6467 60.2296C87.243 60.4132 88.1401 60.6563 89.3031 60.8212C90.4642 60.9844 91.906 61.0575 93.4898 60.7991C95.0497 60.5356 96.8366 59.961 98.2322 58.7829C99.6186 57.598 100.615 55.7484 100.783 53.7407C100.863 52.7683 100.719 51.66 100.183 51.0191C99.9176 50.708 99.6481 50.5907 99.266 50.6009C99.1921 50.6077 99.0112 50.6366 99.0112 50.6366L98.7805 50.7028C98.714 50.7266 98.7436 50.7385 98.7159 50.747C98.6476 50.7946 98.5239 50.8745 98.4888 51.0071C98.2359 51.5902 98.7491 52.7547 99.506 53.5503C100.27 54.3935 101.295 55.0905 102.432 55.5835C104.717 56.595 107.429 56.7888 110.039 56.425C112.659 56.0374 115.282 55.2265 117.338 53.858C119.378 52.5014 120.794 50.3815 120.628 48.2837C120.563 47.2756 120.091 46.2658 119.354 45.868C118.994 45.6606 118.614 45.6147 118.187 45.715C118.036 45.783 117.99 45.7541 118.036 46.1791C118.224 46.9526 118.959 47.7941 119.714 48.401C120.491 49.0266 121.37 49.5061 122.267 49.8223C124.071 50.4632 125.913 50.4393 127.427 50.0262C128.953 49.6182 130.157 48.8872 131.074 48.2242C131.99 47.5459 132.634 46.9186 133.059 46.4834C133.474 46.0363 133.696 45.7984 133.696 45.7984L133.714 45.7796C133.888 45.5926 134.194 45.5722 134.399 45.7337C134.598 45.8901 134.624 46.1639 134.462 46.3509C134.462 46.3509 134.24 46.6075 133.823 47.0903C133.395 47.5629 132.743 48.2481 131.787 49.0148C130.825 49.7645 129.537 50.6213 127.805 51.15C126.096 51.6855 123.893 51.8061 121.761 51.0768C120.698 50.7266 119.659 50.1894 118.723 49.4635C117.807 48.7155 116.892 47.874 116.478 46.4868C116.395 46.1332 116.351 45.6946 116.561 45.2203C116.783 44.729 117.261 44.3941 117.772 44.2598C118.531 44.049 119.482 44.1323 120.2 44.5403C121.676 45.3546 122.23 46.8303 122.348 48.175C122.577 50.9783 120.752 53.5894 118.398 55.1738C115.993 56.7837 113.179 57.6507 110.314 58.0978C107.435 58.5143 104.335 58.2729 101.651 57.0727C100.316 56.4794 99.098 55.6499 98.1436 54.5857C97.6692 54.0485 97.2612 53.4534 96.9788 52.7768C96.7129 52.1053 96.5284 51.2995 96.8736 50.4223C97.0489 49.9769 97.4107 49.6012 97.8889 49.3462C98.1861 49.1949 98.3504 49.1592 98.4888 49.1218C98.7971 49.0419 98.9411 49.0385 99.1848 49.0164C100.099 48.9484 101.082 49.4363 101.548 50.0738C102.493 51.3522 102.491 52.6765 102.404 53.8682C102.14 56.2635 100.937 58.3783 99.2291 59.7893C97.4864 61.2003 95.4503 61.7596 93.6874 61.9857C91.9078 62.2067 90.3498 62.0656 89.113 61.8429C86.6338 61.3822 85.3379 60.726 85.3379 60.726L85.3121 60.7141C85.0776 60.5951 84.9927 60.3231 85.1219 60.1055C85.2456 59.8981 85.5243 59.8165 85.7533 59.9151Z" fill="#E9EB9D"/>
<path d="M84.1693 80.2029C84.1693 80.2029 84.4869 80.3576 85.0831 80.6449C85.6775 80.888 86.5119 81.1634 87.7155 81.4184C88.9099 81.6258 90.383 81.8434 92.085 81.8145C93.7741 81.7924 95.7068 81.6564 97.671 81.1022C99.6037 80.5531 101.666 79.5603 102.781 77.8042C103.035 77.3605 103.342 76.9304 103.436 76.4085L103.667 75.6571L103.711 74.8513L103.759 74.0982L103.646 73.1972C103.584 72.9371 103.49 72.7586 103.429 72.5291C103.301 72.3472 103.205 72.1109 103.048 71.9715C102.504 71.3527 101.457 71.4105 100.809 72.1534C100.119 72.8368 100.076 73.9826 100.46 75.0128C100.536 75.2797 100.658 75.5381 100.826 75.7897L101.047 76.1722L101.103 76.2691C101.092 76.2572 101.165 76.3609 101.084 76.2555L101.127 76.3048L101.289 76.4986C101.527 76.8148 101.675 76.859 101.869 77.0341C102.109 77.1803 102.343 77.3316 102.629 77.4387C103.722 77.9215 105.092 78.0354 106.428 78.0507C109.142 78.0337 111.913 77.4387 114.435 76.5275C115.692 76.0685 116.901 75.5041 117.909 74.8037C118.922 74.1288 119.683 73.1632 119.284 72.6651C119.219 72.592 119.203 72.5087 119.116 72.4322C119.066 72.3795 118.878 72.2231 118.948 72.2469L118.538 71.9851C118.427 71.9375 118.394 71.9579 118.328 71.9171C117.995 71.8219 117.554 71.895 117.128 72.1398C116.262 72.626 115.57 73.5423 115.154 74.4756C114.289 76.366 114.51 78.5097 115.83 79.7337C117.12 80.9866 119.038 81.449 120.676 81.6207C122.343 81.8094 123.844 81.6819 125.067 81.6054C126.293 81.4711 127.255 81.347 127.907 81.2212C128.562 81.1107 128.911 81.0529 128.911 81.0529L128.933 81.0495C129.197 81.0053 129.452 81.1668 129.498 81.4099C129.546 81.6479 129.378 81.8757 129.125 81.9284C129.125 81.9284 128.771 81.9981 128.106 82.1324C127.445 82.2837 126.459 82.4452 125.197 82.6254C123.927 82.7478 122.374 82.9365 120.552 82.7937C118.782 82.6526 116.533 82.2837 114.772 80.6534C113.919 79.8493 113.301 78.7273 113.157 77.5288C112.998 76.3337 113.172 75.0893 113.672 73.9282C114.178 72.7756 114.922 71.6298 116.257 70.824C116.912 70.4347 117.844 70.1542 118.8 70.4041C119.038 70.4806 119.328 70.586 119.507 70.6829L119.917 70.943C120.222 71.1878 120.262 71.2541 120.445 71.4241C120.593 71.5669 120.707 71.7794 120.829 71.9613C121.056 72.3642 121.141 72.8521 121.093 73.3179C121.012 73.7718 120.835 74.1662 120.609 74.5096C120.155 75.1879 119.568 75.6503 118.976 76.0855C117.772 76.927 116.46 77.539 115.101 78.049C112.378 79.0452 109.471 79.698 106.439 79.7439C104.928 79.7371 103.355 79.6113 101.852 78.9585C101.474 78.8089 101.119 78.5913 100.769 78.3652C100.431 78.1085 100.01 77.743 99.8511 77.5101L99.6905 77.3163L99.6499 77.267C99.5447 77.1259 99.6019 77.1922 99.5687 77.1463L99.4985 77.0256L99.2216 76.5428C99.0222 76.2317 98.8653 75.8951 98.7583 75.5296C98.2525 74.1577 98.2451 72.3455 99.4745 71.0926C100.032 70.4619 100.885 70.008 101.837 69.9485C102.771 69.8737 103.807 70.2562 104.354 70.9175C104.66 71.2218 104.826 71.5788 105.027 71.9205C105.147 72.2809 105.289 72.6787 105.358 73.0136L105.461 73.9163C105.478 74.3617 105.428 74.6048 105.409 74.9567L105.323 75.9257L105.024 76.8624C104.876 77.5016 104.496 78.049 104.152 78.5981C102.664 80.7826 100.215 81.8366 98.0882 82.4027C95.9136 82.9773 93.8553 83.0538 92.0628 83.0079C90.263 82.9739 88.7142 82.6917 87.4571 82.4248C86.2221 82.1256 85.2086 81.7465 84.5902 81.4592C84.0069 81.1515 83.6949 80.9866 83.6949 80.9866C83.4623 80.8625 83.3811 80.5888 83.5159 80.3746C83.6469 80.1655 83.9386 80.0924 84.1693 80.2029Z" fill="#F9ABB3"/>
<path d="M76.1448 101.257C76.1448 101.257 76.1521 101.322 76.1706 101.444C76.1964 101.572 76.2371 101.767 76.3257 102.014C76.5066 102.498 76.8278 103.234 77.5846 103.903C78.3267 104.571 79.4805 105.167 80.9813 105.373C82.4858 105.586 84.2413 105.589 86.0043 105.052C87.7635 104.53 89.5855 103.539 90.9331 102.067C91.5939 101.346 92.1441 100.458 92.216 99.6237C92.2419 99.214 92.1736 98.8468 91.941 98.5544C91.8265 98.4082 91.6862 98.2671 91.4979 98.1515L91.4333 98.1022L91.4167 98.092C91.3964 98.0784 91.533 98.1549 91.4629 98.1175L91.413 98.092L91.2081 97.9917C91.0604 97.9254 91.1177 97.9815 91.0604 97.9526C90.9405 97.9254 90.7522 98.0206 90.5214 98.4252C90.322 98.8094 90.2113 99.316 90.1688 99.8294C90.0987 100.868 90.2722 101.977 90.6728 103.003C91.4389 105.091 93.1778 106.82 95.4096 107.639C96.5541 108.056 97.6765 108.267 98.9853 108.321C100.148 108.363 101.381 108.209 102.458 107.825C104.64 107.048 106.264 105.28 106.999 103.308C107.377 102.332 107.534 101.281 107.418 100.367C107.361 99.9144 107.189 99.5064 106.99 99.3007C106.882 99.2225 106.807 99.1494 106.687 99.1443C106.715 99.1426 106.567 99.129 106.739 99.1341L106.631 99.1375C106.572 99.1409 106.458 99.1341 106.447 99.1443C106.462 99.1766 106.476 99.1358 106.414 99.1817C105.965 99.3925 105.653 100.464 105.708 101.29C105.718 102.169 105.965 103.025 106.319 103.782C107.069 105.3 108.372 106.347 109.725 106.884C111.099 107.408 112.454 107.524 113.558 107.49C114.665 107.45 115.542 107.318 116.133 107.206C116.724 107.085 117.037 107.02 117.037 107.02L117.069 107.015C117.331 106.961 117.589 107.114 117.647 107.355C117.704 107.592 117.547 107.825 117.296 107.884C117.296 107.884 116.967 107.964 116.352 108.113C115.734 108.255 114.813 108.431 113.609 108.518C112.411 108.596 110.888 108.538 109.242 107.979C107.614 107.415 105.926 106.177 104.996 104.35C104.542 103.442 104.221 102.427 104.178 101.33C104.152 100.783 104.189 100.217 104.359 99.6288C104.538 99.061 104.787 98.3929 105.587 97.9169C105.755 97.8013 106.054 97.7078 106.342 97.6619C106.469 97.6432 106.5 97.6534 106.585 97.6466L106.692 97.6432C106.936 97.6483 106.859 97.6602 106.956 97.6704C107.422 97.718 107.846 97.9679 108.165 98.245C108.764 98.8383 108.968 99.5132 109.083 100.142C109.279 101.412 109.066 102.648 108.633 103.824C107.787 106.165 105.834 108.36 103.115 109.349C101.76 109.837 100.34 110.031 98.8709 109.985C97.5491 109.944 96.0299 109.698 94.7155 109.208C91.9945 108.224 89.8587 106.024 88.9818 103.546C88.5167 102.311 88.3136 101.013 88.4114 99.7053C88.4761 99.0491 88.6053 98.3878 88.9505 97.7197C89.1498 97.3899 89.3547 97.0465 89.7682 96.7575C90.1596 96.4719 90.7614 96.2866 91.2912 96.3716C91.533 96.3988 91.9004 96.5212 92.0241 96.5875L92.2271 96.6895L92.2788 96.715L92.3748 96.7677L92.4043 96.7881L92.5225 96.8697C92.8381 97.0771 93.128 97.3508 93.3606 97.6636C93.8461 98.2926 93.9827 99.0933 93.9051 99.7699C93.7205 101.145 92.9563 102.175 92.1588 103.032C90.514 104.737 88.4502 105.784 86.4325 106.342C84.389 106.92 82.3953 106.84 80.7376 106.536C79.0467 106.24 77.6511 105.479 76.7835 104.62C75.8937 103.763 75.5448 102.866 75.3565 102.276C75.2642 101.976 75.2236 101.737 75.1978 101.575C75.1811 101.405 75.1719 101.317 75.1719 101.317C75.1479 101.07 75.3436 100.853 75.6113 100.831C75.8715 100.809 76.1023 100.98 76.1374 101.215L76.1448 101.257Z" fill="#9ACEA0"/>
<path d="M62.2168 123.934C62.2168 123.934 62.1023 124.265 61.9509 124.935C61.8051 125.598 61.6187 126.587 61.5947 127.845C61.5818 129.09 61.7239 130.65 62.5472 132.14C63.3613 133.632 65.0651 134.815 67.3043 135.227C68.4212 135.448 69.5989 135.514 70.7361 135.281C71.8787 135.045 72.9605 134.498 73.8447 133.683C75.5689 132.075 76.6599 129.352 76.2205 127.011C76.0968 126.434 75.7701 126.067 75.5633 126.066C75.567 126.067 75.4101 126.062 75.543 126.05L75.2569 126.083C75.2625 126.111 75.2809 126.091 75.2126 126.134C75.1277 126.196 75.0206 126.389 74.9634 126.638C74.7419 127.704 75.1683 129.132 75.7849 130.322C77.0346 132.765 79.4806 134.81 82.3695 135.082C85.277 135.414 88.2454 134.186 89.9677 131.992C90.8593 130.924 91.4906 129.666 91.8524 128.384C92.0315 127.742 92.1367 127.089 92.1423 126.465C92.1552 125.85 92.0205 125.221 91.7823 124.908C91.6586 124.751 91.5977 124.724 91.4777 124.714C91.3854 124.689 91.0088 124.797 90.9885 124.843C90.7264 124.979 90.564 125.454 90.5787 125.996C90.6286 127.101 91.1879 128.265 91.9171 129.209C93.3883 131.149 95.6866 132.288 97.9055 132.481C98.4519 132.532 99.0352 132.537 99.53 132.502C100.108 132.447 100.673 132.393 101.223 132.34C101.732 132.25 102.229 132.16 102.712 132.075C103.189 131.959 103.645 131.808 104.093 131.686C105.853 131.101 107.108 130.115 107.841 129.131C108.583 128.141 108.845 127.188 108.941 126.55C109.037 125.906 108.993 125.564 108.996 125.588C108.969 125.341 109.161 125.12 109.428 125.093C109.694 125.066 109.936 125.243 109.965 125.489C109.965 125.489 109.973 125.596 109.986 125.805C109.993 126.003 109.986 126.292 109.947 126.664C109.862 127.4 109.607 128.51 108.78 129.702C107.968 130.89 106.513 132.089 104.573 132.801C104.082 132.956 103.584 133.136 103.054 133.28C102.513 133.394 101.956 133.512 101.383 133.631C100.835 133.693 100.272 133.756 99.6961 133.821C99.0334 133.882 98.4261 133.882 97.7633 133.835C95.1531 133.653 92.3804 132.339 90.6082 130.083C89.7277 128.959 89.0041 127.648 88.8859 126.052C88.8582 125.289 88.9893 124.24 89.9898 123.556C90.5787 123.208 90.959 123.126 91.6162 123.131C92.2586 123.153 92.8918 123.555 93.1871 123.976C93.8018 124.835 93.8701 125.675 93.8849 126.463C93.8849 127.257 93.7612 128.027 93.5582 128.779C93.1447 130.276 92.4339 131.718 91.3928 132.985C89.3973 135.584 85.709 137.182 82.148 136.769C80.3519 136.59 78.6517 135.842 77.3023 134.807C75.9381 133.772 74.908 132.451 74.1715 131.03C73.4848 129.586 72.9107 128.078 73.2485 126.288C73.3629 125.843 73.5567 125.335 74.0625 124.92C74.2951 124.729 74.6607 124.556 75.0409 124.488L75.3289 124.457C75.6557 124.444 75.6907 124.473 75.8845 124.488C76.5306 124.593 77.0642 125.006 77.354 125.416C77.6678 125.834 77.8026 126.256 77.9078 126.662C78.2474 128.284 77.9392 129.768 77.4241 131.137C76.898 132.503 76.0562 133.741 74.9671 134.732C73.865 135.715 72.4768 136.386 71.0554 136.651C69.6229 136.915 68.2218 136.798 66.9813 136.529C65.726 136.255 64.5353 135.795 63.568 135.108C62.6044 134.421 61.8808 133.552 61.4119 132.667C60.4963 130.868 60.428 129.151 60.4834 127.815C60.5554 126.463 60.7861 125.43 60.9652 124.731C61.1479 124.036 61.2901 123.66 61.2901 123.66L61.2938 123.652C61.3824 123.417 61.6593 123.295 61.914 123.376C62.1614 123.456 62.2962 123.704 62.2168 123.934Z" fill="#E9EB9D"/>
<path d="M137.202 58.1064C135.276 58.1064 133.774 57.8463 133.637 57.8225C133.137 57.7341 132.808 57.2887 132.906 56.828C133.002 56.3673 133.487 56.0629 133.986 56.153C134.052 56.1649 140.644 57.292 143.275 54.6876C145.486 52.4963 145.985 49.7815 146.468 47.1567C146.945 44.5642 147.393 42.1179 149.429 40.4026C150.334 39.641 151.648 38.915 153.171 38.0769C156.376 36.3106 160.365 34.1126 161.185 30.9217C161.639 29.1605 161.124 27.2395 159.608 25.0448C159.335 24.6504 159.462 24.1251 159.893 23.8735C160.323 23.6219 160.893 23.7391 161.166 24.1335C162.937 26.6988 163.548 29.1145 162.983 31.3126C161.982 35.2022 157.622 37.6044 154.12 39.5339C152.743 40.2938 151.442 41.0095 150.676 41.6555C149.108 42.9764 148.728 45.0452 148.289 47.4405C147.785 50.1792 147.214 53.2817 144.626 55.8453C142.765 57.6881 139.644 58.1064 137.202 58.1064Z" fill="#3D3942"/>
<path d="M163.835 17.1669C163.191 16.6824 162.29 16.6365 161.511 16.7096C160.895 13.483 159.769 9.9691 157.732 9.7328C157.241 9.6665 156.787 9.83315 156.442 10.1629C156.161 10.4332 155.447 11.1422 155.737 14.8584C154.698 13.4372 153.485 12.1043 152.49 11.9309C152.025 11.8425 151.578 11.9616 151.236 12.2489C150.514 12.8575 149.961 14.2803 152.848 19.2834C152.314 19.6489 151.977 20.1198 151.912 20.6791C151.772 21.7603 152.384 22.9657 153.594 23.9823C154.943 25.1179 156.719 25.7928 158.412 25.8625C158.923 25.8829 159.427 25.8488 159.911 25.7553C162.681 25.2266 164.396 20.7404 164.5 18.5848C164.527 18.0119 164.293 17.5086 163.835 17.1669Z" fill="#3D3942"/>
<path d="M155.27 21.4323C155.27 21.4323 155.482 21.4917 155.857 21.592C156.228 21.694 156.778 21.8028 157.409 21.8725C158.037 21.9371 158.796 21.8454 158.943 21.383C159.052 21.1263 159.05 20.8049 158.899 20.4768C158.818 20.2932 158.493 20.0144 158.177 19.8291C157.503 19.4313 156.623 19.2443 155.818 19.178C155.412 19.161 155.017 19.1304 154.64 19.1542C154.267 19.1797 153.909 19.2138 153.601 19.3005C153.28 19.3668 153.008 19.4772 152.776 19.5877C152.547 19.7084 152.372 19.8428 152.261 19.9873C152.113 20.1114 152.098 20.2592 152.043 20.3425C151.999 20.4343 151.977 20.4836 151.977 20.4836C151.977 20.4887 151.973 20.4905 151.967 20.4905C151.964 20.4905 151.962 20.4853 151.96 20.4819C151.96 20.4819 151.969 20.4292 151.988 20.3323C152.021 20.2388 151.993 20.0638 152.122 19.9091C152.213 19.7255 152.373 19.5418 152.602 19.3616C152.829 19.195 153.112 19.008 153.451 18.9009C154.122 18.6544 154.956 18.4913 155.855 18.4998C156.305 18.5134 156.771 18.5575 157.241 18.6425C157.708 18.7445 158.185 18.8789 158.639 19.1084C159.086 19.3685 159.514 19.6404 159.78 20.2337C159.962 20.6638 160.014 21.2181 159.796 21.6941C159.606 22.216 159.017 22.5508 158.552 22.612C158.074 22.6953 157.67 22.6409 157.3 22.5967C155.866 22.323 155.07 21.8436 155.07 21.8436C154.956 21.7773 154.919 21.6379 154.991 21.5325C155.048 21.4441 155.168 21.4085 155.27 21.4323Z" fill="white"/>
</svg>
