<svg width="155" height="217" viewBox="0 0 155 217" fill="none" xmlns="http://www.w3.org/2000/svg">
<path d="M47.5216 213.972C47.0251 213.972 46.6152 213.61 46.5986 213.149C46.4676 209.273 49.3104 198.694 49.4304 198.245C49.5541 197.791 50.0433 197.517 50.5509 197.625C51.0438 197.738 51.3447 198.199 51.2229 198.655C51.1933 198.764 48.321 209.453 48.4446 213.096C48.4612 213.564 48.0606 213.957 47.5512 213.972C47.5419 213.972 47.5309 213.972 47.5216 213.972Z" fill="#3D3942"/>
<path d="M106.483 215.456C106.47 215.456 106.457 215.456 106.443 215.454C105.935 215.436 105.538 215.038 105.56 214.569C105.728 210.927 102.976 200.21 102.948 200.102C102.83 199.644 103.138 199.185 103.635 199.078C104.12 198.969 104.626 199.253 104.744 199.709C104.861 200.158 107.583 210.766 107.406 214.642C107.384 215.099 106.974 215.456 106.483 215.456Z" fill="#3D3942"/>
<path d="M43.4162 210.667C41.1917 210.667 39.7075 211.439 39.3383 212.787C39.2165 213.238 39.3273 213.693 39.6466 214.072C40.7007 215.315 43.7761 215.378 44.3816 215.378C45.8215 215.378 48.3081 215.157 48.777 213.683C48.9265 213.215 48.8176 212.727 48.476 212.304C47.601 211.23 45.2677 210.667 43.4162 210.667Z" fill="#3D3942"/>
<path d="M114.67 214.351C114.314 212.976 112.802 212.189 110.526 212.189C108.698 212.189 106.396 212.738 105.534 213.787C105.191 214.203 105.082 214.689 105.224 215.15C105.702 216.721 108.536 216.891 109.73 216.891C110.561 216.891 113.346 216.799 114.354 215.624C114.674 215.25 114.786 214.798 114.67 214.351Z" fill="#3D3942"/>
<path d="M135.892 182.467C123.893 194.69 105.654 202.937 80.3455 203.396C25.4824 204.397 -13.9851 153.739 4.69642 134.731C24.2086 114.858 32.2018 133.881 61.0548 137.604L60.9809 138.029C60.9809 138.029 53.5785 146.274 59.5595 153.552C65.7805 161.115 78.6656 152.668 78.6656 152.668C78.6656 152.668 72.8692 166.674 80.3455 172.473C91.4769 181.124 103.956 166.997 104.694 166.166C104.177 167.305 97.0702 183.37 108.792 188.096C123.486 194.046 135.799 182.384 135.799 182.384L135.892 182.467Z" fill="#772180"/>
<path d="M80.5854 135.938C80.5854 135.938 77.9088 146.954 88.4679 150.9C97.0149 154.096 106.005 144.134 106.614 143.454C106.429 144.168 102.83 158.312 114.533 160.588C125.757 162.781 130.298 149.147 130.298 149.147C130.298 149.147 132.181 170.773 148.74 163.206C145.749 170.229 141.503 176.772 135.892 182.467L135.799 182.384C135.799 182.384 123.486 194.046 108.792 188.096C97.0702 183.37 104.177 167.305 104.694 166.166C103.956 166.997 91.4769 181.124 80.3455 172.473C72.8692 166.674 78.6656 152.668 78.6656 152.668C78.6656 152.668 65.7805 161.115 59.5595 153.552C53.5785 146.274 60.9809 138.029 60.9809 138.029L61.0548 137.604C62.4208 137.793 63.8238 137.929 65.2821 138.029C71.337 138.454 76.3581 137.519 80.4378 135.668L80.5854 135.938Z" fill="#8F1E92"/>
<path d="M152.432 119.789C153.151 122.866 153.687 126.114 153.964 129.547C154.887 140.955 153.244 152.616 148.74 163.207C132.181 170.773 130.298 149.148 130.298 149.148C130.298 149.148 125.757 162.782 114.533 160.589C102.829 158.312 106.429 144.168 106.614 143.454C106.005 144.134 97.0146 154.096 88.4676 150.9C77.9085 146.955 80.5852 135.939 80.5852 135.939L80.4375 135.668C85.551 133.355 89.1691 129.616 91.4581 125.28C91.9381 126.845 94.2087 133.186 99.2298 133.95C104.971 134.834 108.552 122.289 108.552 122.289C108.552 122.289 112.133 134.614 120.496 134.393C128.47 134.189 130.058 121.846 130.058 121.846C130.058 121.846 134.599 134.171 142.74 133.73C151.121 133.288 152.062 119.875 152.062 119.875L152.432 119.789Z" fill="#B51A83"/>
<path d="M144.18 100.138C147.632 105.611 150.641 112.138 152.432 119.788L152.063 119.875C152.063 119.875 151.121 133.288 142.74 133.73C134.6 134.17 130.058 121.846 130.058 121.846C130.058 121.846 128.471 134.189 120.496 134.393C112.134 134.614 108.552 122.289 108.552 122.289C108.552 122.289 104.971 134.834 99.2301 133.95C94.209 133.186 91.9385 126.845 91.4585 125.28C94.9844 118.684 95.4274 110.744 93.3599 104.471C94.0983 105.304 98.6948 110.134 103.771 109.299C110.472 108.194 110.934 98.5215 110.934 98.5215C110.934 98.5215 116.195 108.859 123.376 107.106C130.538 105.338 129.117 95.6502 129.117 95.6502C129.117 95.6502 138.661 105.561 143.922 100.274L144.18 100.138Z" fill="#C23791"/>
<path d="M144.18 100.138L143.922 100.274C138.66 105.561 129.117 95.65 129.117 95.65C129.117 95.65 130.538 105.338 123.376 107.106C116.195 108.859 110.934 98.5214 110.934 98.5214C110.934 98.5214 110.472 108.194 103.771 109.299C98.6946 110.134 94.0981 105.304 93.3597 104.471C92.8059 102.739 92.049 101.141 91.1075 99.73C79.2746 81.8953 53.0984 89.8191 52.3785 78.2591C52.1016 73.6691 55.3136 70.9661 59.4671 68.9091L59.7994 69.47C59.7994 69.47 60.0947 79.1584 67.6818 80.9111C75.2688 82.6451 80.3454 71.8841 80.3454 71.8841C80.3454 71.8841 82.4682 82.9 90.1476 83.325C97.827 83.75 101.611 73.2084 101.611 73.2084C101.611 73.2084 105.156 84.855 112.115 85.2443C119.074 85.62 122.286 78.2591 122.286 78.2591C122.286 78.2591 134.839 85.2631 144.18 100.138Z" fill="#CD54A8"/>
<path d="M137.867 41.4882C141.485 63.4335 122.287 78.2591 122.287 78.2591C122.287 78.2591 119.075 85.6201 112.115 85.2444C105.156 84.8551 101.611 73.2084 101.611 73.2084C101.611 73.2084 97.8272 83.7501 90.1478 83.3251C82.4684 82.9001 80.3456 71.8841 80.3456 71.8841C80.3456 71.8841 75.269 82.6451 67.682 80.9111C60.0949 79.1584 59.7996 69.4701 59.7996 69.4701L59.4673 68.9091C67.202 65.0654 78.2042 63.4164 76.1182 55.7341C77.5396 58.3521 80.5117 62.1244 85.6067 61.0891C93.2491 59.5591 93.7291 50.7514 93.7291 50.7514C93.7291 50.7514 97.0703 59.7801 104.251 58.4541C111.414 57.1264 113.334 46.7904 113.334 46.7904C113.334 46.7904 118.484 56.3104 126.237 55.8191C136.519 55.1544 137.719 41.5051 137.719 41.5051L137.867 41.4882Z" fill="#D979C3"/>
<path d="M137.867 41.4882L137.719 41.5051C137.719 41.5051 136.519 55.1544 126.237 55.8191C118.484 56.3104 113.333 46.7905 113.333 46.7905C113.333 46.7905 111.414 57.1264 104.251 58.4541C97.0701 59.7801 93.7288 50.7514 93.7288 50.7514C93.7288 50.7514 93.2489 59.5591 85.6064 61.0891C80.5115 62.1244 77.5394 58.3521 76.118 55.7341C76.0995 55.6491 76.0626 55.5641 76.0442 55.4791C69.5832 34.3464 22.6209 54.4915 20.1104 33.3605C17.3598 10.1045 48.7972 0.346428 70.3031 0.00642837C91.8274 -0.316572 128.747 11.5665 136.63 36.3355C137.202 38.0882 137.608 39.8052 137.867 41.4882Z" fill="#AA7EBA"/>
<path d="M51.0773 16.0222C51.0773 16.0222 51.1215 16.2534 51.2028 16.658C51.2785 17.0643 51.4464 17.6389 51.6661 18.2917C51.7843 18.6181 51.9264 18.9615 52.1128 19.2947C52.3048 19.6228 52.5134 19.9628 52.7756 20.2382C53.0229 20.5391 53.3405 20.7414 53.669 20.9131C54.0106 21.0423 54.4166 21.1273 54.7877 21.1222C55.4098 21.1358 55.6535 21.0865 56.0171 20.9624C56.3845 20.8519 56.6854 20.6275 56.9493 20.3708C57.4865 19.854 57.8502 19.1332 58.0496 18.4855C58.2563 17.8344 58.3874 17.2547 58.4409 16.8484C58.4981 16.4472 58.5314 16.2177 58.5314 16.2177L58.5351 16.1905C58.5683 15.944 58.8138 15.7706 59.0833 15.8012C59.2993 15.8267 59.4655 15.9814 59.5005 16.1701C59.5024 16.1701 59.5559 16.4387 59.5799 16.8926C59.591 17.3448 59.6224 17.9993 59.4673 18.7898C59.3012 19.565 59.0427 20.5374 58.2471 21.418C57.8502 21.843 57.3278 22.251 56.702 22.4737C56.1021 22.7389 55.2584 22.8239 54.8191 22.8137C53.442 22.8545 52.1036 22.1388 51.4132 21.231C51.0274 20.7992 50.8059 20.3249 50.625 19.8846C50.4441 19.4426 50.3315 19.0193 50.2429 18.6317C49.9327 17.0745 50.1026 16.0324 50.1026 16.0341C50.145 15.7859 50.3961 15.6159 50.6656 15.6533C50.8779 15.6839 51.0385 15.8386 51.0773 16.0222Z" fill="#3D3942"/>
<path d="M79.9394 16.6834C79.9394 16.6834 79.9856 16.9214 80.0668 17.3345C80.1443 17.751 80.316 18.3393 80.5467 19.0091C80.6667 19.3423 80.8126 19.6958 81.0119 20.0307C81.1984 20.3775 81.4476 20.6903 81.706 20.981C81.9774 21.2598 82.2876 21.491 82.6512 21.6151C82.8303 21.6831 83.0167 21.7426 83.2216 21.7511C83.2899 21.7579 83.4911 21.7953 83.4487 21.7834L83.8603 21.7749C84.1797 21.7936 84.3366 21.7375 84.4769 21.7001C84.6356 21.6984 84.7999 21.5828 84.9698 21.5199C85.2928 21.3499 85.5623 21.0898 85.7783 20.7668C86.214 20.1242 86.4743 19.3286 86.5998 18.6367C86.729 17.9397 86.8084 17.3311 86.8231 16.9078C86.8435 16.4879 86.8564 16.2482 86.8564 16.2482L86.8582 16.2261C86.8693 15.9779 87.1 15.7858 87.3696 15.796C87.5911 15.8062 87.772 15.9507 87.8219 16.1394C87.8219 16.1394 87.8939 16.408 87.9603 16.8636C88.0194 17.3226 88.1024 17.9822 88.0452 18.7914C87.9714 19.5921 87.8569 20.5747 87.2588 21.5794C86.9579 22.0741 86.5056 22.5654 85.9057 22.9139C85.5919 23.0669 85.3021 23.2505 84.9089 23.3185C84.5194 23.4188 84.1446 23.4783 83.912 23.4664L83.5003 23.4766C83.181 23.4766 83.1182 23.4307 82.9152 23.4069C82.5718 23.3661 82.2469 23.2607 81.9294 23.1264C81.2907 22.8714 80.7701 22.4515 80.3788 22.0129C79.5924 21.1187 79.3229 20.1412 79.1235 19.3575C78.7912 17.7612 78.9647 16.6953 78.9647 16.6953C79.0072 16.4471 79.2564 16.2771 79.5277 16.3145C79.74 16.3434 79.9006 16.4981 79.9394 16.6834Z" fill="#3D3942"/>
<path d="M76.2235 28.9048C76.2235 28.9048 76.5834 37.9862 74.61 40.9578C72.6404 43.9277 66.364 43.5979 63.4953 40.9578C60.3663 38.0729 61.5237 28.5749 61.5237 28.5749C61.5237 28.5749 72.8065 30.0132 76.2235 28.9048Z" fill="#E188B4"/>
<path d="M69.5389 28.7534C69.5389 28.7534 69.6608 29.2736 69.7309 30.0505C69.8177 30.8274 69.8158 31.8611 69.7918 32.893C69.7493 33.4081 69.7087 33.9248 69.6681 34.4076C69.6238 34.8887 69.5315 35.3392 69.478 35.7251C69.3358 36.4952 69.1789 37.0069 69.1789 37.0069C69.1088 37.2534 68.8356 37.4013 68.5679 37.335C68.3815 37.2891 68.2467 37.1429 68.2061 36.9814C68.2061 36.9814 68.0954 36.4613 68.0215 35.6844C68.0012 35.2968 67.9476 34.8428 67.9458 34.36C67.9476 33.8738 67.9495 33.357 67.9532 32.8419C68.0196 31.81 68.1064 30.7799 68.2596 30.0098C68.3981 29.238 68.5642 28.7262 68.5642 28.7262C68.6399 28.4814 68.9168 28.3386 69.1826 28.4066C69.3654 28.4542 69.4965 28.5953 69.5389 28.7534Z" fill="#D64E98"/>
<path d="M44.1785 29.9367C43.9275 29.9367 43.6764 29.8415 43.4937 29.6579C43.1521 29.3111 43.1799 28.7739 43.5583 28.4577C47.8595 24.8571 44.6068 20.8859 44.4665 20.7176C44.1564 20.3487 44.2265 19.8149 44.6289 19.5276C45.0295 19.2386 45.6073 19.3015 45.9211 19.6721C47.4884 21.5098 49.268 25.974 44.7969 29.7157C44.6216 29.8636 44.4 29.9367 44.1785 29.9367Z" fill="#3D3942"/>
<path d="M73.846 29.8567C60.1247 29.8567 47.079 25.5013 46.3277 25.2446C45.8496 25.0814 45.604 24.5935 45.7812 24.1532C45.9566 23.7129 46.492 23.4868 46.9645 23.65C47.2156 23.7333 72.1108 32.0447 88.7838 25.8057C89.2546 25.6306 89.7936 25.8379 89.9856 26.2748C90.1776 26.7083 89.9505 27.2048 89.4798 27.3816C84.623 29.1989 79.1809 29.8567 73.846 29.8567Z" fill="#3D3942"/>
<path d="M91.9495 31.8271C91.6856 31.8271 91.4216 31.7233 91.2407 31.521C88.3978 28.3641 88.4865 25.7308 89.0643 24.0767C89.6956 22.2713 91.0302 21.2361 91.0875 21.1919C91.4807 20.8927 92.0622 20.942 92.3871 21.3058C92.712 21.6662 92.6584 22.1983 92.267 22.4992C92.0972 22.6335 88.3554 25.6544 92.6603 30.4348C92.987 30.7969 92.9334 31.3324 92.5402 31.6316C92.3667 31.7642 92.1581 31.8271 91.9495 31.8271Z" fill="#3D3942"/>
</svg>
