<svg width="176" height="229" viewBox="0 0 176 229" fill="none" xmlns="http://www.w3.org/2000/svg">
<path d="M75.2492 222.377C74.7545 222.377 74.3429 222.013 74.3262 221.554C74.1749 217.19 77.3813 205.258 77.5198 204.753C77.6416 204.297 78.1345 204.024 78.6385 204.133C79.1332 204.246 79.4341 204.707 79.3104 205.163C79.2791 205.285 76.0283 217.37 76.1722 221.498C76.1889 221.967 75.7883 222.36 75.2788 222.375C75.2696 222.377 75.2585 222.377 75.2492 222.377Z" fill="#3D3942"/>
<path d="M105.097 225.891C104.712 225.891 104.352 225.666 104.222 225.311C102.718 221.172 102.075 208.891 102.051 208.371C102.026 207.901 102.419 207.504 102.928 207.482C103.449 207.459 103.872 207.822 103.894 208.291C103.901 208.417 104.549 220.854 105.974 224.771C106.135 225.216 105.875 225.699 105.389 225.847C105.295 225.877 105.195 225.891 105.097 225.891Z" fill="#3D3942"/>
<path d="M70.6121 218.863C68.1588 218.863 66.5251 219.705 66.1226 221.173C65.9953 221.649 66.1097 222.131 66.4494 222.53C67.605 223.893 71.0275 223.963 71.7031 223.963C72.988 223.963 76.0246 223.785 76.5526 222.127C76.7095 221.634 76.595 221.117 76.2295 220.669C75.2752 219.496 72.6224 218.863 70.6121 218.863Z" fill="#3D3942"/>
<path d="M102.858 223.305C100.927 223.305 98.4018 223.861 97.1114 225.106C96.5097 225.685 96.2106 226.379 96.2457 227.115C96.2715 227.623 96.602 228.81 99.1255 228.81C101.256 228.81 104.453 227.963 105.812 226.704C106.294 226.26 106.535 225.777 106.532 225.272C106.526 224.041 105.153 223.305 102.858 223.305Z" fill="#3D3942"/>
<path d="M72.4286 5.73931C69.2941 1.20201 40.5778 -3.20951 30.8586 3.25389C21.1449 9.71559 -11.7877 102.682 4.40724 115.112C20.604 127.541 82.6869 136.986 82.6869 136.986C82.6869 136.986 64.3302 195.653 69.1889 200.624C74.0476 205.595 109.136 214.045 113.993 208.08C118.854 202.115 137.21 143.451 137.21 143.451C137.21 143.451 156.106 150.409 163.123 144.446C170.141 138.477 178.526 109.354 174.055 104.548C169.194 99.3277 148.142 94.1087 148.142 94.1087C148.142 94.1087 168.386 29.2299 163.527 23.6369C158.194 17.4965 127.089 7.60421 116.155 13.9418C109.974 17.5254 100.501 74.8426 96.183 75.8371C91.8633 76.8316 58.3917 70.3682 57.8508 63.9065C57.3099 57.4431 75.2622 9.83971 72.4286 5.73931Z" fill="#EC60AB"/>
<path d="M62.1779 88.0209C62.1797 88.0277 62.2499 88.1178 62.3551 88.2232C62.4843 88.3643 62.6726 88.5717 62.9126 88.8352C63.4018 89.3588 64.1236 90.0949 65.041 90.8667C65.9659 91.6334 67.0901 92.4239 68.3712 93.0818C69.0154 93.4014 69.6892 93.7108 70.4018 93.9539C71.0903 94.2089 71.9118 94.3993 72.5819 94.5557C73.0287 94.6339 73.5474 94.7512 73.9333 94.7971C74.2951 94.8311 74.6532 94.8549 75.0076 94.9161C75.7885 94.9722 76.5601 94.9994 77.3059 94.9586C78.0517 94.9212 78.7735 94.8566 79.4565 94.7359C80.1321 94.6084 80.7801 94.4809 81.3708 94.3092C81.9523 94.129 82.4986 93.9675 82.9694 93.7822C83.4309 93.5901 83.8462 93.432 84.173 93.2756C84.496 93.1192 84.749 92.9968 84.9207 92.9152C85.0868 92.8234 85.1458 92.803 85.1384 92.8081L85.6811 92.6381C86.4177 92.4052 87.2188 92.769 87.4699 93.4473C87.6287 93.874 87.5271 94.3296 87.2502 94.6628C87.2502 94.6628 87.1542 94.7767 86.977 94.9892C86.8109 95.1762 86.5747 95.4499 86.2442 95.7627C85.587 96.3866 84.5699 97.2043 83.1559 97.9489C81.7529 98.6986 79.9401 99.3446 77.9022 99.6676C76.8795 99.8121 75.8179 99.8699 74.7325 99.8767C74.1584 99.8563 73.5825 99.7968 73.0029 99.7492C72.4565 99.6897 72.0503 99.6047 71.5629 99.5333C70.3852 99.3327 69.3717 99.0471 68.3435 98.6306C67.3227 98.2515 66.3628 97.7653 65.5192 97.2009C63.795 96.1061 62.4899 94.7699 61.5872 93.5374C60.6753 92.3066 60.1473 91.1727 59.8501 90.3567C59.5639 89.5713 59.4569 88.9746 59.4624 89.0086C59.1671 88.3184 59.5363 87.5381 60.2839 87.2644C61.0334 86.9907 61.8825 87.329 62.1779 88.0209Z" fill="#3D3942"/>
<path d="M49.7377 81.9435C50.4854 79.0008 48.4973 76.0615 45.3037 75.3747C42.1101 74.6896 38.9184 76.5188 38.1726 79.4598C37.4286 82.4008 39.4131 85.3401 42.6085 86.0252C45.8003 86.712 48.9957 84.8828 49.7377 81.9435Z" fill="#3D3942"/>
<path d="M39.9428 80.3284C39.8099 80.3284 39.6733 80.3114 39.5385 80.274C36.6292 79.4529 34.5691 77.1664 34.4824 77.0695C33.9987 76.5255 34.0836 75.7214 34.6762 75.276C35.2669 74.8289 36.1382 74.9071 36.6237 75.4528C36.6385 75.4681 38.2537 77.2429 40.349 77.8345C41.08 78.0419 41.4916 78.7542 41.2664 79.4274C41.0837 79.9765 40.5373 80.3284 39.9428 80.3284Z" fill="#3D3942"/>
<path d="M43.02 78.9514C42.7283 78.9514 42.4329 78.8664 42.1819 78.6896C40.1217 77.2412 38.8886 72.5016 38.6615 71.5649C38.4954 70.8781 38.9662 70.198 39.7119 70.0433C40.4485 69.892 41.198 70.3222 41.3659 71.0107C41.9142 73.2717 43.0237 76.0733 43.8617 76.6632C44.4691 77.0899 44.5872 77.8906 44.122 78.4499C43.8488 78.7797 43.439 78.9514 43.02 78.9514Z" fill="#3D3942"/>
<path d="M45.7354 78.9124C45.1225 78.9124 44.5613 78.5349 44.397 77.9637C43.786 75.8268 45.4419 71.859 45.7797 71.0855C46.064 70.4327 46.8651 70.1165 47.5795 70.3783C48.2903 70.6401 48.6336 71.383 48.3494 72.0358C47.6719 73.5913 46.7968 76.3436 47.0756 77.3126C47.2713 77.9926 46.8301 78.6896 46.0899 78.8715C45.9717 78.8987 45.8517 78.9124 45.7354 78.9124Z" fill="#3D3942"/>
<path d="M96.434 91.9683C97.1779 89.0273 100.372 87.1982 103.565 87.8833C106.761 88.5684 108.743 91.5093 108.001 94.4503C107.255 97.393 104.064 99.2205 100.866 98.5337C97.6764 97.8503 95.69 94.9093 96.434 91.9683Z" fill="#3D3942"/>
<path d="M107.776 94.7241C107.32 94.7241 106.853 94.6952 106.384 94.6238C105.629 94.5116 105.118 93.8571 105.239 93.1618C105.363 92.4665 106.085 91.9853 106.829 92.1077C108.994 92.4358 111.292 91.4975 111.315 91.4873C112.012 91.2017 112.832 91.4856 113.146 92.1265C113.458 92.7674 113.151 93.5187 112.457 93.8111C112.354 93.8536 110.238 94.7241 107.776 94.7241Z" fill="#3D3942"/>
<path d="M104.505 92.1536C103.857 92.1536 103.277 91.732 103.148 91.1234C103 90.4332 103.489 89.7634 104.239 89.6274C105.278 89.4387 107.619 87.3749 109.195 85.5729C109.674 85.0238 110.547 84.9388 111.141 85.3774C111.737 85.8211 111.831 86.6218 111.351 87.1709C110.698 87.9189 107.316 91.6674 104.772 92.1281C104.684 92.1451 104.593 92.1536 104.505 92.1536Z" fill="#3D3942"/>
<path d="M102.09 91.0112C101.767 91.0112 101.446 90.9092 101.182 90.6984C100.606 90.2377 100.543 89.4319 101.045 88.8998C101.762 88.1433 102.301 85.3179 102.439 83.6485C102.496 82.9464 103.159 82.4092 103.925 82.4755C104.686 82.5282 105.258 83.1402 105.201 83.8423C105.133 84.6736 104.708 88.9049 103.137 90.5726C102.862 90.8633 102.476 91.0112 102.09 91.0112Z" fill="#3D3942"/>
<path d="M160.424 27.3649C160.424 25.0308 158.369 23.1388 155.835 23.1388C153.3 23.1388 151.245 25.0308 151.245 27.3649C151.245 29.699 153.3 31.5911 155.835 31.5911C158.369 31.5911 160.424 29.699 160.424 27.3649Z" fill="#E7E41F"/>
<path d="M148.75 22.3313C148.75 20.8268 126.685 12.6362 124.253 19.7218C121.824 26.8057 148.75 25.5018 148.75 22.3313Z" fill="#EC2E9A"/>
<path d="M148.344 28.4836C147.995 27.7135 124.253 30.9078 124.253 38.5527C124.253 46.1942 149.357 30.7208 148.344 28.4836Z" fill="#DD2292"/>
<path d="M151.379 32.0263C149.802 31.9362 133.472 46.818 139.234 49.5499C145.914 52.7187 154.62 32.2133 151.379 32.0263Z" fill="#EC2E9A"/>
<path d="M156.645 34.4489C155.632 34.4489 146.723 53.2798 153.204 54.7707C157.782 55.8247 158.869 34.4489 156.645 34.4489Z" fill="#DD2292"/>
<path d="M66.7598 6.23564C66.3832 5.57604 62.7022 19.0638 53.9393 23.885C44.2238 29.2298 47.0574 37.3083 54.8826 34.5747C63.8449 31.445 69.9976 11.9544 66.7598 6.23564Z" fill="#FCDAED"/>
<path d="M25.7304 28.237C24.4954 28.3798 30.4562 5.98911 42.6028 7.97811C52.2408 9.55401 40.3064 16.8029 35.5843 20.9033C30.2715 25.5154 27.8902 27.9888 25.7304 28.237Z" fill="#A9378E"/>
<path d="M87.3685 205.362C79.7427 203.684 79.0467 197.056 87.7008 195.284C93.6689 194.064 98.4778 198.492 97.9794 202.919C97.5954 206.332 95.0165 207.046 87.3685 205.362Z" fill="#E7E41F"/>
<path d="M87.0712 192.608C88.0828 193.273 97.0598 154.013 86.3955 156.067C81.3393 157.039 78.5666 187.015 87.0712 192.608Z" fill="#EC2E9A"/>
<path d="M91.8633 192.794C91.0843 195.422 118.785 154.078 106.373 149.977C99.0941 147.574 98.0031 157.435 96.5189 170.236C95.0845 182.595 92.2676 191.425 91.8633 192.794Z" fill="#DD2292"/>
<path d="M95.2546 193.97C94.5937 194.551 103.805 192.71 111.023 188.484C117.388 184.759 119.723 178.437 116.146 175.338C112.67 172.329 108.791 177.46 104.911 183.51C101.165 189.349 95.9044 193.399 95.2546 193.97Z" fill="#EC2E9A"/>
<path d="M99.3694 198.278C98.8045 198.429 104.619 199.874 110.058 199.427C114.852 199.036 118.191 196.083 117.15 193.358C116.138 190.711 112.304 192.573 108.175 194.954C104.189 197.256 99.9177 198.128 99.3694 198.278Z" fill="#DD2292"/>
<path d="M82.7646 195.005C83.0268 195.488 77.9226 192.551 74.5795 188.573C71.6277 185.069 71.7071 180.805 74.5869 179.656C77.3817 178.537 78.5078 182.391 79.4178 186.798C80.2984 191.055 82.5136 194.536 82.7646 195.005Z" fill="#DD2292"/>
<path d="M43.2766 95.9718C43.2766 100.502 39.2874 104.176 34.3697 104.176C29.4519 104.176 25.4609 100.502 25.4609 95.9718C25.4609 91.443 29.4519 87.7693 34.3697 87.7693C39.2874 87.7693 43.2766 91.443 43.2766 95.9718Z" fill="#F799CF"/>
<path d="M116.559 113.497C116.559 118.026 112.572 121.7 107.654 121.7C102.734 121.7 98.7451 118.026 98.7451 113.497C98.7451 108.968 102.734 105.295 107.654 105.295C112.572 105.295 116.559 108.968 116.559 113.497Z" fill="#F799CF"/>
<path d="M15.9687 41.0007C19.4078 37.7673 26.6995 31.4926 30.5447 35.78C35.1135 40.8715 21.6377 45.475 21.6377 45.475C21.6377 45.475 37.0242 42.9896 38.1041 48.2086C39.184 53.4293 22.7176 54.4222 22.7176 54.4222C22.7176 54.4222 37.8345 60.6374 33.2454 64.3655C28.6581 68.0953 18.398 61.1355 18.398 61.1355C18.398 61.1355 25.3685 70.4191 18.8041 70.6418C13.3381 70.8305 11.1026 63.8334 10.9088 55.9165C10.8202 52.3193 12.5296 44.2341 15.9687 41.0007Z" fill="#E7E41F"/>
<path d="M128.108 159.135C126.21 160.541 119.245 165.9 116.548 162.393C113.343 158.228 124.013 155.389 124.013 155.389C124.013 155.389 112.001 156.495 111.492 152.414C110.984 148.332 123.738 148.434 123.738 148.434C123.738 148.434 112.472 142.851 116.24 140.218C120.009 137.586 127.484 143.49 127.484 143.49C127.484 143.49 122.695 135.859 127.761 136.141C129.245 136.225 133.245 140.83 133.321 147.346C133.363 150.964 131.783 156.412 128.108 159.135Z" fill="#FCDAED"/>
<path d="M174.782 115.967C174.782 115.967 165.823 119.587 162.718 111.882C159.612 104.176 167.57 100.577 167.57 100.577C167.57 100.577 173.914 103.234 175.02 105.475C176.096 107.659 175.818 111.948 174.782 115.967Z" fill="#A9378E"/>
<path d="M160.152 103.193C161.179 101.458 144.07 92.2046 141.801 98.5813C139.529 104.958 159.132 104.919 160.152 103.193Z" fill="#EC2E9A"/>
<path d="M159.746 109.769C159.99 107.603 138.362 104.904 138.995 112.263C139.634 119.624 159.51 111.918 159.746 109.769Z" fill="#DD2292"/>
<path d="M161.502 115.734C160.411 114.068 143.398 122.868 148.153 127.803C152.912 132.739 162.587 117.387 161.502 115.734Z" fill="#EC2E9A"/>
<path d="M168.522 118.716C166.695 117.739 156.344 132.972 163.091 135.201C169.835 137.435 170.333 119.69 168.522 118.716Z" fill="#DD2292"/>
<path d="M4.00291 93.6122C2.69409 95.4193 23.8419 82.9209 15.3392 77.0797C12.2804 74.9785 9.82337 79.7963 8.18597 84.6617C6.43042 89.8824 4.54378 92.8659 4.00291 93.6122Z" fill="#FCDAED"/>
<path d="M129.954 47.2005C131.547 45.5957 108.586 55.0001 116.033 61.9616C118.712 64.4657 121.931 60.0457 124.349 55.4642C126.941 50.5478 129.3 47.8635 129.954 47.2005Z" fill="#A9378E"/>
<path d="M40.037 22.1629C36.9265 22.1629 36.9265 26.6016 40.037 26.6016C43.1475 26.6016 43.1475 22.1629 40.037 22.1629Z" fill="white"/>
<path d="M50.9689 17.6886C47.8584 17.6886 47.8584 22.1273 50.9689 22.1273C54.0775 22.1273 54.0775 17.6886 50.9689 17.6886Z" fill="white"/>
<path d="M57.8508 8.36582C54.7421 8.36582 54.7421 12.8062 57.8508 12.8062C60.9631 12.8062 60.9631 8.36582 57.8508 8.36582Z" fill="white"/>
<path d="M150.166 58.3304C147.057 58.3304 147.057 62.7708 150.166 62.7708C153.276 62.7708 153.276 58.3304 150.166 58.3304Z" fill="white"/>
<path d="M147.736 67.6515C144.628 67.6515 144.628 72.0919 147.736 72.0919C150.847 72.0919 150.847 67.6515 147.736 67.6515Z" fill="white"/>
<path d="M143.859 76.9591C140.749 76.9591 140.749 81.3995 143.859 81.3995C146.966 81.3995 146.966 76.9591 143.859 76.9591Z" fill="white"/>
<path d="M7.25573 97.3591C4.14522 97.3591 4.14522 101.8 7.25573 101.8C10.3626 101.8 10.3626 97.3591 7.25573 97.3591Z" fill="white"/>
<path d="M7.71716 106.284C4.60665 106.284 4.60665 110.724 7.71716 110.724C10.824 110.724 10.824 106.284 7.71716 106.284Z" fill="white"/>
<path d="M14.6398 101.609C11.5293 101.609 11.5293 106.049 14.6398 106.049C17.7466 106.049 17.7466 101.609 14.6398 101.609Z" fill="white"/>
</svg>
