<svg width="167" height="224" viewBox="0 0 167 224" fill="none" xmlns="http://www.w3.org/2000/svg">
<path d="M126.796 75.8776C126.418 75.8776 126.061 75.6617 125.927 75.3132C125.755 74.8712 126.006 74.385 126.486 74.2286C127.448 73.9107 150.008 66.1808 147.242 41.4424C147.189 40.9766 147.56 40.5584 148.066 40.5108C148.566 40.4598 149.026 40.8015 149.079 41.269C151.994 67.3572 127.355 75.7467 127.104 75.8283C127.003 75.8623 126.899 75.8776 126.796 75.8776Z" fill="#3D3942"/>
<path d="M148.776 42.4913C146.125 44.3681 139.38 42.0578 139.738 39.0862C139.943 37.3828 143.368 39.4636 143.368 39.4636C143.368 39.4636 141.176 32.8421 143.024 31.7082C144.872 30.5726 145.695 37.7619 145.695 37.7619C145.695 37.7619 146.517 30.9517 148.57 31.1404C150.626 31.3291 148.367 37.9506 148.367 37.9506C148.367 37.9506 151.241 34.5455 152.679 35.4907C154.117 36.4376 151.446 40.5992 148.776 42.4913Z" fill="#3D3942"/>
<path d="M126.511 218.225C126.037 218.225 125.635 217.892 125.594 217.449C124.926 210.363 122.229 201.428 122.201 201.339C122.064 200.887 122.351 200.418 122.842 200.29C123.331 200.166 123.842 200.428 123.979 200.88C124.006 200.972 126.75 210.057 127.433 217.302C127.477 217.77 127.1 218.183 126.593 218.222C126.565 218.224 126.537 218.225 126.511 218.225Z" fill="#3D3942"/>
<path d="M135.217 214.208C134.514 213.13 133.436 212.561 132.098 212.561C129.955 212.561 127.653 214.033 126.419 215.402C125.664 216.24 125.347 216.989 125.478 217.627C125.592 218.188 126.1 218.856 127.874 218.856C130.123 218.856 134.204 217.746 135.232 216.071C135.609 215.459 135.603 214.798 135.217 214.208Z" fill="#3D3942"/>
<path d="M125.697 48.6097C131.649 45.3712 130.355 16.5766 118.029 15.8201C105.705 15.0636 38.5995 14.3071 30.1079 27.6742C21.6198 41.0447 19.1565 83.6688 39.9711 87.7046C60.7866 91.7421 89.8186 86.1916 104.062 109.896C118.158 133.363 96.3922 162.986 67.3602 152.267C47.1096 144.792 51.4754 134.108 39.9711 133.098C28.4668 132.092 11.9507 146.183 20.2505 167.904C26.2553 183.625 44.4384 202.973 79.9591 206.747C108.443 209.775 138.023 198.171 152.265 179.508C184.736 136.959 156.422 87.9256 134.599 76.3554C107.485 61.9785 86.4109 67.835 83.7933 63.4915C82.4236 61.222 82.4254 54.1585 87.9025 53.6553C94.4502 53.0518 119.674 51.8873 125.697 48.6097Z" fill="#EBD432"/>
<path d="M42.3377 21.2924L60.1128 17.5184C59.5775 20.6294 48.7064 28.0414 46.2678 27.6674C44.9202 27.4804 43.0004 24.6244 42.3174 21.3094L42.3377 21.2924Z" fill="#EBD432"/>
<path d="M29.5635 4.71731C50.6448 -9.90269 74.4766 13.9313 72.0215 16.0733C45.716 39.0233 25.9989 47.3533 25.9989 47.3533C25.9989 47.3533 24.8743 45.5513 23.5265 42.6273C19.5943 34.0083 13.835 15.6483 29.5635 4.71731ZM42.3175 21.3093C43.0005 24.6243 44.9203 27.4803 46.2679 27.6673C48.7065 28.0413 59.5776 20.6293 60.1129 17.5183L60.1498 17.3143C60.1498 17.1783 60.1332 17.0593 60.0963 16.9573C59.2471 14.5773 51.0675 8.25327 45.0311 12.6733C42.1513 14.7813 41.7102 18.2323 42.3175 21.2923C42.3175 21.3093 42.3175 21.3093 42.3175 21.3093Z" fill="#EB2454"/>
<path d="M42.3375 21.2927L42.3174 21.3093C42.3174 21.3093 42.3174 21.3094 42.3174 21.2927C42.3174 21.2927 42.3174 21.2927 42.3375 21.2927Z" fill="#C5234E"/>
<path d="M60.0961 16.9574C59.2469 14.5774 51.0673 8.25333 45.0309 12.6733C42.1511 14.7813 41.7099 18.2324 42.3173 21.2924C42.3173 21.2924 42.3173 21.2924 42.3376 21.2924L60.1127 17.5183C60.1496 17.4503 60.1496 17.3823 60.1496 17.3143C60.1496 17.1783 60.133 17.0594 60.0961 16.9574Z" fill="#C5234E"/>
<path d="M72.0212 16.0734C72.0212 16.0734 76.2651 21.6834 25.1125 51.5694C10.0497 60.3754 1.28118 63.6734 0.0445452 61.0384C-1.17345 58.3864 22.9903 42.8144 22.9903 42.8144L23.5262 42.6274C24.874 45.5514 25.9986 47.3534 25.9986 47.3534C25.9986 47.3534 45.7157 39.0234 72.0212 16.0734Z" fill="#C5234E"/>
<path d="M79.1988 35.5519C79.1988 35.5519 79.3262 35.8511 79.5957 36.4019C79.8504 36.9442 80.2953 37.6956 80.8916 38.5014C81.1962 38.8992 81.5414 39.3174 81.9512 39.688C82.3481 40.0756 82.8225 40.4004 83.3191 40.6792C83.8193 40.9614 84.3842 41.1109 84.9602 41.2469L85.8739 41.3234C86.1896 41.2979 86.5071 41.2707 86.8265 41.2639L87.8676 41.0667C88.2073 40.9817 88.4029 40.8712 88.6835 40.793C88.9438 40.6859 89.206 40.5278 89.4718 40.4088C89.7062 40.2456 89.937 40.0808 90.1585 39.9108C90.5554 39.5249 90.9375 39.127 91.2052 38.6646C91.4821 38.2124 91.7147 37.7449 91.8697 37.2859C92.1965 36.3713 92.3608 35.5349 92.4198 34.9501C92.49 34.3636 92.5011 34.0475 92.5011 34.0475L92.5029 34.0253C92.5177 33.6513 92.8573 33.3589 93.2635 33.3725C93.5976 33.3827 93.8726 33.5986 93.9502 33.8825C93.9502 33.8825 94.0609 34.282 94.1274 34.9535C94.1569 35.2901 94.1865 35.6999 94.1717 36.1742C94.1643 36.6485 94.1348 37.1907 94 37.7772C93.7656 38.9434 93.2192 40.3697 92.0137 41.5869C91.6999 41.8708 91.3584 42.1496 91.004 42.4148C90.6126 42.6341 90.2489 42.8874 89.8096 43.071C89.3684 43.2308 88.8589 43.4314 88.4509 43.5317L87.2049 43.785C86.7452 43.8224 86.2819 43.8377 85.8241 43.8564C85.357 43.8241 84.8882 43.7697 84.4285 43.7119C83.5129 43.513 82.6434 43.1832 81.9179 42.7208C80.4485 41.8079 79.5458 40.5873 78.9736 39.5384C78.3847 38.4827 78.1373 37.5427 77.9601 36.895C77.8715 36.5686 77.8401 36.3067 77.8087 36.1214C77.7847 35.9395 77.7718 35.8426 77.7718 35.8426C77.7238 35.472 78.0118 35.1371 78.4124 35.0929C78.752 35.0555 79.064 35.2374 79.1822 35.5162L79.1988 35.5519Z" fill="#3D3942"/>
<path d="M68.4551 222.608C68.4292 222.608 68.4034 222.606 68.3738 222.605C67.868 222.566 67.4915 222.152 67.5358 221.685C68.2206 214.428 72.0215 202.689 72.1821 202.193C72.3298 201.742 72.8412 201.482 73.3322 201.623C73.8214 201.758 74.0983 202.23 73.9506 202.681C73.9119 202.8 70.0426 214.747 69.3744 221.831C69.3338 222.275 68.9295 222.608 68.4551 222.608Z" fill="#3D3942"/>
<path d="M62.8727 216.94C61.5325 216.94 60.4545 217.51 59.7511 218.588C59.3653 219.179 59.3616 219.839 59.7364 220.451C60.7646 222.125 64.8461 223.235 67.0964 223.235C68.8685 223.235 69.378 222.567 69.4925 222.005C69.6217 221.369 69.3042 220.619 68.5492 219.781C67.316 218.414 65.0122 216.94 62.8727 216.94Z" fill="#3D3942"/>
<path d="M62.703 116.042C62.3393 116.042 61.9959 115.845 61.8501 115.515C52.6829 94.9295 63.6352 84.5101 64.1059 84.0783C64.4659 83.7451 65.0474 83.7468 65.4074 84.0766C65.7692 84.4064 65.7692 84.9454 65.4129 85.2786C65.3058 85.3772 54.8815 95.3885 63.5577 114.869C63.7515 115.304 63.5263 115.8 63.0537 115.979C62.9393 116.023 62.8211 116.042 62.703 116.042Z" fill="#3D3942"/>
<path d="M65.9905 114.94C64.3383 114.704 61.8831 115.318 61.3349 116.894C60.7866 118.471 60.2494 123.131 61.2149 123.5C62.7028 124.068 63.4744 119.811 63.4744 119.811C63.4744 119.811 64.3734 123.981 65.2724 123.925C66.8119 123.83 65.8871 119.527 65.8871 119.527C65.8871 119.527 68.6266 122.412 69.3797 122.034C70.1329 121.655 67.3768 117.398 67.3768 117.398C67.3768 117.398 70.7845 118.22 70.7845 117.019C70.7845 115.823 67.77 115.192 65.9905 114.94Z" fill="#3D3942"/>
<path d="M70.681 36.8304C70.681 34.7173 68.8221 33.0054 66.5275 33.0054C64.2348 33.0054 62.374 34.7173 62.374 36.8304C62.374 38.9435 64.2348 40.6554 66.5275 40.6554C68.8221 40.6554 70.681 38.9435 70.681 36.8304Z" fill="#3D3942"/>
<path d="M107.37 31.7303C107.37 29.6172 105.512 27.9053 103.217 27.9053C100.924 27.9053 99.0635 29.6172 99.0635 31.7303C99.0635 33.8434 100.924 35.5553 103.217 35.5553C105.512 35.5553 107.37 33.8434 107.37 31.7303Z" fill="#3D3942"/>
</svg>
