<svg width="194" height="239" viewBox="0 0 194 239" fill="none" xmlns="http://www.w3.org/2000/svg">
<path d="M122.416 15.2512C127.354 21.3899 128.873 27.0577 128.873 27.0577L128.895 27.1767C126.119 27.4844 124.47 28.3871 124.47 28.3871C112.237 5.56628 85.7688 4.6398 84.3252 4.599C106.422 2.1765 118.744 11.7934 122.397 15.2342C122.416 15.2342 122.416 15.2342 122.416 15.2512Z" fill="#96718A"/>
<path d="M138.86 28.3769C148.313 32.9159 150.467 52.1582 147.084 58.3887C143.237 65.4709 132.777 67.1709 128.624 62.9209C119.449 53.5352 121.784 29.3459 124.758 27.4929C124.758 27.4929 126.438 26.6429 129.225 26.4219C131.699 26.2349 135.038 26.5409 138.86 28.3769Z" fill="#D73D6F"/>
<path d="M123.392 28.2137C123.392 28.2137 131.315 24.7424 139.314 32.8174C147.315 40.8924 148.193 62.0012 136.084 64.9405C127.468 67.0298 127.393 58.4584 127.393 58.4584C127.393 58.4584 117.699 34.5887 123.392 28.2137Z" fill="#BB3767"/>
<path d="M136.089 105.613C135.646 105.613 135.255 105.317 135.181 104.901C135.098 104.437 135.439 104 135.941 103.925C136.025 103.911 144.204 102.636 149.137 98.7688C160.676 89.7163 159.33 81.4135 159.314 81.3319C159.232 80.8695 159.568 80.4309 160.071 80.3527C160.558 80.2762 161.047 80.5805 161.134 81.0429C161.206 81.4169 162.736 90.3351 150.333 100.064C145.003 104.243 136.597 105.548 136.241 105.601C136.191 105.61 136.141 105.613 136.089 105.613Z" fill="#3D3942"/>
<path d="M155.754 74.5234C152.21 76.8728 154.224 83.3209 160.309 82.3383C166.395 81.354 162.269 70.2105 155.754 74.5234Z" fill="#3D3942"/>
<path d="M127.838 149.663C127.419 138.245 115.805 129.354 101.894 129.787C87.9843 130.221 77.0504 139.815 77.4713 151.233C77.8904 162.65 89.5017 171.556 103.413 171.123C117.323 170.689 128.257 161.081 127.838 149.663ZM160.231 121.404C177.135 148.637 173.711 204.771 111.888 222.84C50.0674 240.926 -7.26378 187.193 9.97602 104.382C27.2121 21.5855 103.212 22.9081 120.858 27.1207C143.815 32.5794 147.198 53.7869 136.975 62.5776C126.608 71.4737 105.593 66.5828 86.1475 74.2481C58.8932 84.9972 64.1063 100.688 67.5546 105.122C71.0066 109.555 79.5241 101.059 100.157 97.5398C121.943 93.8338 146.84 99.845 160.231 121.404Z" fill="#42BEA0"/>
<path d="M76.1199 0.87432C101.798 -2.97108 115.469 6.60501 122.397 15.2342C118.744 11.7934 106.422 2.17655 84.3254 4.59905C84.2903 4.60075 84.2719 4.60071 84.2719 4.60071C82.6899 4.76901 81.0561 5.00704 79.3671 5.31474C47.6971 11.0641 39.5267 44.0815 38.5501 48.6511C38.3046 48.4896 38.0406 48.3451 37.7785 48.2346C37.066 47.9677 36.1707 47.7399 35.1147 47.6209C34.2988 47.5257 33.3721 47.4866 32.414 47.5172L32.4048 47.2792C32.4048 47.2792 32.2885 7.42782 76.1199 0.87432Z" fill="#BD9BAA"/>
<path d="M52.5612 48.0884C52.5612 48.0884 52.6756 48.3468 52.9063 48.8041C53.1297 49.2597 53.51 49.8905 54.0102 50.5841C54.265 50.9258 54.5622 51.2794 54.913 51.6007C55.2674 51.9118 55.6532 52.2262 56.0888 52.4387C56.5116 52.6869 56.9989 52.7906 57.4937 52.8501C57.7429 52.8688 58.0031 52.8298 58.2579 52.8315C58.52 52.7805 58.7785 52.7057 59.0461 52.6666C59.1421 52.6309 59.6202 52.4625 59.8177 52.3605C59.971 52.2143 60.1574 52.1855 60.3199 51.9866C60.6799 51.684 60.9383 51.2691 61.134 50.8305C61.5309 49.9516 61.6804 48.9639 61.7025 48.1207C61.7265 47.2741 61.6988 46.5482 61.6435 46.0467C61.5899 45.5486 61.5586 45.2648 61.5586 45.2648L61.5567 45.2511C61.529 45.0029 61.7265 44.7837 61.996 44.7582C62.2194 44.7378 62.4243 44.8601 62.5018 45.042C62.5018 45.042 62.9966 46.2133 63.159 48.0986C63.2052 49.037 63.2181 50.1811 62.7437 51.4C62.5 52.0001 62.1456 52.6274 61.5844 53.1425C61.3573 53.4196 60.9291 53.6406 60.5857 53.8684C60.2165 54.0435 60.0873 54.0996 59.587 54.2832C59.2196 54.3699 58.8467 54.4396 58.4757 54.4991C58.088 54.5008 57.7004 54.5349 57.3201 54.4941C56.5541 54.3955 55.8045 54.1796 55.2064 53.8141C54.5733 53.4877 54.1026 53.032 53.7057 52.5951C53.3106 52.1548 53.006 51.706 52.7513 51.2878C51.784 49.5895 51.6234 48.3248 51.6234 48.3248L51.6215 48.3111C51.5901 48.0646 51.7821 47.8402 52.0517 47.8113C52.275 47.7875 52.4799 47.9065 52.5612 48.0884Z" fill="#3D3942"/>
<path d="M98.8165 37.1829C98.8165 37.1829 98.931 37.4413 99.1636 37.8986C99.3851 38.3542 99.7672 38.9849 100.264 39.6785C100.522 40.0185 100.818 40.3737 101.166 40.695C101.525 41.0061 101.909 41.3206 102.344 41.5331C102.769 41.7796 103.254 41.8851 103.749 41.9446C104 41.9633 104.259 41.9224 104.515 41.9258C104.777 41.8748 105.034 41.8001 105.302 41.761C105.397 41.727 105.876 41.5569 106.075 41.4566C106.228 41.3087 106.413 41.2799 106.577 41.0827C106.935 40.7784 107.196 40.3635 107.391 39.9266C107.786 39.046 107.938 38.0601 107.96 37.2152C107.986 36.3686 107.956 35.6444 107.902 35.1412C107.849 34.6448 107.816 34.3591 107.816 34.3591V34.3473C107.788 34.0991 107.986 33.878 108.253 33.8525C108.477 33.8321 108.682 33.9545 108.761 34.1381C108.761 34.1381 109.254 35.3078 109.414 37.1948C109.462 38.1332 109.475 39.2773 109.001 40.4962C108.757 41.0946 108.401 41.7219 107.842 42.237C107.613 42.5158 107.184 42.7351 106.843 42.9646C106.472 43.1397 106.343 43.1958 105.842 43.3777C105.475 43.4644 105.102 43.5341 104.731 43.5936C104.343 43.5953 103.956 43.6292 103.574 43.5867C102.809 43.4881 102.06 43.274 101.462 42.9085C100.829 42.5821 100.36 42.1265 99.961 41.6896C99.566 41.2493 99.2614 40.8005 99.0085 40.3823C98.0393 38.684 97.8769 37.4191 97.8787 37.4191L97.8769 37.4056C97.8455 37.1591 98.0375 36.9346 98.307 36.9057C98.5303 36.8819 98.7371 37.001 98.8165 37.1829Z" fill="#3D3942"/>
<path d="M67.1855 65.318C67.359 70.0168 63.3605 73.9557 58.2582 74.1138C53.1558 74.2736 48.8805 70.593 48.707 65.8942C48.5353 61.1954 52.5319 57.2582 57.6324 57.0984C62.7366 56.9403 67.0138 60.6209 67.1855 65.318Z" fill="#EC60AB"/>
<path d="M124.195 50.6707C124.369 55.3695 120.374 59.3067 115.27 59.4665C110.169 59.6246 105.892 55.9441 105.719 51.247C105.547 46.5482 109.547 42.6093 114.644 42.4512C119.748 42.2914 124.024 45.9719 124.195 50.6707Z" fill="#EC60AB"/>
<path d="M95.4345 54.0248L95.5489 54.1217C93.3208 56.4031 90.07 58.2901 85.7393 59.1231C81.2461 59.9935 77.3123 59.5039 74.2202 58.2748C75.6804 56.8332 85.1153 48.17 95.4345 54.0248Z" fill="#DE617A"/>
<path d="M95.9016 41.149C100.208 43.2094 100.086 49.4722 95.5489 54.1217L95.4345 54.0248C85.1154 48.17 75.6804 56.8332 74.2203 58.2748C68.1875 55.9441 65.2672 50.8815 67.3716 47.8385C69.3173 45.0046 76.0164 46.8729 82.3427 45.093C89.3981 43.104 92.6304 39.568 95.9016 41.149Z" fill="#3D3942"/>
<path d="M39.578 140.839C33.8721 140.839 27.3021 139.191 24.3855 132.425C18.4303 118.603 33.8739 106.864 34.0308 106.747C34.4295 106.451 35.0073 106.507 35.3285 106.873C35.6497 107.237 35.5907 107.772 35.1938 108.068C35.048 108.177 20.6492 119.143 26.1004 131.798C31.1104 143.418 48.8376 137.811 49.0148 137.752C49.4984 137.599 50.0227 137.83 50.1944 138.27C50.3624 138.714 50.1113 139.2 49.6295 139.355C49.5354 139.387 44.937 140.839 39.578 140.839Z" fill="#3D3942"/>
<path d="M55.9244 133.614C52.9394 130.68 46.2532 133.35 48.0974 138.782C49.9415 144.213 61.407 139.008 55.9244 133.614Z" fill="#3D3942"/>
<path d="M28.9215 225.834C26.0141 225.834 23.0106 225.116 19.9425 223.685C19.4884 223.472 19.3057 222.961 19.5364 222.542C19.7672 222.126 20.3191 221.958 20.7769 222.167C25.2406 224.251 29.5178 224.679 33.4885 223.435C41.0257 221.082 45.0519 213.505 45.0906 213.429C45.3103 213.007 45.8604 212.827 46.3219 213.029C46.7816 213.233 46.9754 213.742 46.7538 214.165C46.5785 214.503 42.3456 222.464 34.0829 225.047C32.4031 225.57 30.6789 225.834 28.9215 225.834Z" fill="#3D3942"/>
<path d="M127.815 236.453C127.812 236.453 127.81 236.453 127.806 236.453C127.297 236.448 126.887 236.064 126.892 235.595C126.937 231.229 123.178 218.539 123.141 218.41C123.008 217.959 123.296 217.49 123.787 217.366C124.284 217.245 124.788 217.51 124.923 217.963C125.08 218.491 128.785 231.01 128.738 235.612C128.733 236.078 128.321 236.453 127.815 236.453Z" fill="#3D3942"/>
<path d="M17.2991 219.195C16.0881 219.234 15.0377 219.649 14.266 220.394C13.7104 220.929 13.5757 221.607 13.8913 222.257C14.5984 223.714 17.6867 224.766 19.8687 224.698C20.908 224.664 21.7091 224.397 22.2481 223.902C22.8647 223.338 23.0124 222.576 22.6543 221.811C21.9694 220.351 19.4663 219.129 17.2991 219.195Z" fill="#3D3942"/>
<path d="M137.392 235.037C136.931 233.494 135.16 232.656 132.535 232.737C130.398 232.804 127.741 233.518 126.794 234.757C126.436 235.223 126.336 235.755 126.508 236.25C127.112 237.997 130.396 238.087 131.778 238.043C133.776 237.98 136.222 237.525 137.097 236.426C137.431 236.012 137.536 235.519 137.392 235.037Z" fill="#3D3942"/>
<path d="M37.1823 89.7299C37.1823 89.7299 37.2229 89.7792 37.3004 89.8761C37.3724 89.9407 37.4426 89.9883 37.6383 90.1158C38.0075 90.3385 38.6591 90.5986 39.5138 90.8893C41.2379 91.4503 43.815 92.0623 46.931 92.7423C48.4872 93.0874 50.18 93.4665 51.9983 93.7266C52.9084 93.8575 53.8388 94.0105 54.8097 94.0496C55.7789 94.087 56.7758 94.0564 57.7818 94.0717C59.7903 94.087 61.8153 94.5562 63.9124 94.699C66.0058 94.8707 68.1342 94.9183 70.2626 95.0237C72.3837 95.1223 74.5546 95.2192 76.563 94.6021C78.5456 94.07 80.5928 93.9221 82.1915 93.0959C82.9742 92.6981 83.6166 92.1745 83.851 91.52C84.1501 90.8791 83.8381 90.3759 83.1975 89.9118C81.8758 89.0176 80.0464 88.9343 78.5622 88.6283C75.5034 88.0129 72.8359 87.746 70.9881 87.5199C69.1292 87.3057 68.0677 87.1833 68.0677 87.1833C67.8499 87.1578 67.6948 86.9742 67.7207 86.7736C67.7447 86.6019 67.8924 86.4744 68.0714 86.454C68.0714 86.454 69.1569 86.3384 71.0601 86.3044C72.9633 86.2925 75.6843 86.3316 78.9554 86.8875C80.5836 87.2377 82.2874 87.8565 83.9987 88.9547C84.414 89.2505 84.8386 89.6347 85.0915 90.1787C85.3518 90.7278 85.3647 91.3755 85.1672 91.8991C84.8386 92.9837 83.9322 93.7946 83.0019 94.3386C81.0876 95.3722 78.9647 96.025 76.7772 96.0403C74.5859 95.9451 72.452 96.2324 70.2737 96.3616C68.0991 96.4908 65.9282 96.3888 63.7961 96.3072C61.6695 96.1899 59.5448 96.297 57.5492 95.872C56.5524 95.6663 55.5832 95.4045 54.6325 95.1869C53.68 94.9761 52.7367 94.8622 51.8211 94.7126C49.988 94.4287 48.2546 94.1601 46.656 93.9119C43.4679 93.3356 40.8577 92.5893 39.0911 91.8498C38.2032 91.486 37.533 91.112 37.0992 90.7686C36.8962 90.6122 36.6968 90.4031 36.61 90.2773C36.5473 90.1719 36.514 90.1192 36.514 90.1192C36.407 89.9424 36.4771 89.7197 36.6691 89.6228C36.8445 89.5327 37.066 89.5854 37.1823 89.7299Z" fill="#E3B8BC"/>
<path d="M11.8827 95.6136C11.8827 95.6136 11.2458 95.6697 10.0552 95.9009C8.87925 96.1491 7.12184 96.5367 5.13923 97.4564C4.16824 97.9307 3.13449 98.5597 2.33517 99.4726C1.94013 99.9282 1.61338 100.453 1.40848 101.04C1.30325 101.383 1.22944 101.555 1.29405 101.791C1.33835 102.034 1.48049 102.313 1.66325 102.587C3.34311 104.785 6.52006 106.65 9.86871 108.421C13.2857 110.181 17.1567 111.864 21.3988 113.28C23.5106 114.011 25.7185 114.667 28.0112 115.223C30.3076 115.764 32.6852 116.185 35.0832 116.661C39.892 117.55 44.8245 118.677 49.9546 119.218C55.0735 119.801 60.3125 120.019 65.5533 120.034C70.7885 120.026 76.0699 119.635 81.0467 118.358C86.0549 117.29 90.9708 116.168 95.5341 114.512C100.086 112.872 104.401 110.948 107.945 108.486C111.478 105.997 113.976 102.73 115.03 99.51C115.545 97.9001 115.632 96.2579 115.183 94.8418C114.76 93.4206 113.776 92.285 112.571 91.6883C111.362 91.0865 109.983 91.0049 108.763 91.2701C107.533 91.5234 106.462 92.064 105.573 92.6454C103.782 93.8201 102.628 95.1036 101.886 95.9774C101.15 96.8648 100.801 97.3748 100.801 97.3748C100.686 97.5448 100.441 97.5958 100.256 97.4887C100.081 97.3867 100.022 97.1776 100.116 97.011L100.127 96.9956C100.125 96.9956 100.439 96.4517 101.129 95.4776C101.836 94.5239 102.896 93.0874 104.786 91.6781C105.741 90.993 106.92 90.313 108.397 89.9373C109.852 89.5582 111.683 89.5276 113.35 90.3113C115.008 91.078 116.34 92.5859 116.918 94.3607C117.518 96.1303 117.478 98.1262 116.879 100.003C115.702 103.843 112.386 106.908 108.746 109.45C105.058 112.051 100.688 114.013 96.1083 115.832C91.4951 117.579 86.557 119.111 81.3698 119.878C76.153 120.435 70.903 121.057 65.5902 121.307C60.2829 121.581 54.9554 121.318 49.757 120.809C44.5661 120.26 39.4232 119.704 34.6143 118.455C32.2053 117.863 29.8886 117.107 27.6309 116.372C25.3659 115.655 23.1599 114.939 21.0185 114.22C16.7617 112.731 12.7761 111.199 9.25028 109.457C7.48366 108.595 5.84625 107.661 4.35284 106.669C2.86865 105.662 1.48787 104.624 0.542713 103.204C0.315655 102.844 0.112593 102.451 0.0332154 101.983C0.00921738 101.87 0.005538 101.747 0 101.626C0.003692 101.497 0.0203006 101.314 0.0406066 101.254C0.0941406 101.008 0.162441 100.865 0.223359 100.669C0.496567 99.9435 0.921132 99.3043 1.40848 98.7705C2.39424 97.7029 3.57014 97.0399 4.63898 96.5452C6.80803 95.5779 8.65586 95.2821 9.89268 95.09C11.1369 94.9115 11.8199 94.8877 11.8199 94.8877H11.8291C12.0488 94.8792 12.2316 95.0356 12.2408 95.2362C12.2482 95.4317 12.0894 95.5949 11.8827 95.6136Z" fill="#E3B8BC"/>
<path d="M104.774 130.187C104.774 130.187 104.607 130.912 104.406 132.306C104.22 133.695 103.969 135.752 104.039 138.345C104.096 139.633 104.225 141.077 104.722 142.517C105.191 143.941 106.149 145.424 107.829 145.905C109.499 146.41 111.561 145.944 113.546 145.197C115.499 144.407 117.485 143.227 119.477 141.945C123.457 139.336 127.614 136.262 131.956 132.951C134.132 131.3 136.364 129.598 138.62 127.825C140.872 126.047 143.144 124.187 145.566 122.417C150.39 118.849 155.858 115.689 161.776 113.079C164.746 111.804 167.888 110.704 171.239 110.222C172.913 109.984 174.634 109.9 176.347 110.077C178.049 110.263 179.765 110.755 181.261 111.449C184.284 112.743 187.144 114.536 189.35 116.896C191.524 119.255 193.038 122.248 193.188 125.425C193.337 128.602 192.045 131.689 190.109 134.151C188.144 136.621 185.545 138.576 182.658 139.844C181.227 140.485 179.681 140.947 178.222 141.289C176.703 141.636 175.204 141.932 173.596 141.923C172.8 141.903 171.944 141.843 171.097 141.332C170.683 141.075 170.312 140.606 170.238 140.096C170.151 139.584 170.306 139.144 170.484 138.773C171.281 137.313 172.642 136.536 173.997 135.934C175.389 135.363 176.825 135.04 178.388 135.113C180.29 135.463 181.187 136.647 182.029 137.685C183.614 139.873 184.36 142.302 184.691 144.643C185.309 149.356 184.111 153.737 182.209 157.109C180.282 160.504 177.7 162.905 175.448 164.61C173.159 166.306 171.137 167.326 169.766 167.993C168.381 168.651 167.621 168.952 167.621 168.95L167.608 168.957C167.405 169.033 167.172 168.948 167.087 168.763C167.004 168.586 167.089 168.38 167.274 168.295C167.274 168.295 168.003 167.959 169.312 167.243C170.611 166.524 172.492 165.404 174.597 163.687C176.695 161.985 179.005 159.608 180.701 156.409C182.416 153.244 183.382 149.177 182.782 144.861C182.485 142.724 181.875 140.475 180.637 138.506C180.048 137.568 179.106 136.589 178.25 136.419C177.079 136.329 175.717 136.57 174.536 137.034C173.38 137.53 172.201 138.318 171.713 139.283C171.477 139.79 171.534 140.081 171.885 140.302C172.269 140.543 172.946 140.65 173.616 140.645C174.975 140.641 176.433 140.364 177.831 140.004C179.287 139.627 180.644 139.185 181.968 138.562C187.236 136.147 191.34 131.052 191.545 125.432C191.722 122.637 190.618 119.733 188.49 117.572C186.429 115.347 183.624 113.793 180.681 112.631C177.805 111.386 174.613 111.242 171.503 111.719C168.388 112.199 165.387 113.27 162.529 114.531C156.799 117.105 151.769 120.661 146.744 123.864C144.245 125.489 141.767 127.082 139.41 128.728C137.056 130.375 134.823 132.07 132.646 133.722C128.282 137.01 124.236 140.222 120.206 142.889C118.181 144.217 116.208 145.437 114.061 146.333C111.962 147.168 109.608 147.705 107.411 147.027C106.333 146.692 105.434 146.013 104.829 145.247C104.207 144.48 103.856 143.639 103.59 142.84C103.07 141.228 102.974 139.715 102.939 138.37C102.898 135.671 103.273 133.59 103.527 132.182C103.793 130.776 104.002 130.028 104.002 130.028C104.05 129.833 104.262 129.711 104.474 129.756C104.683 129.801 104.812 129.996 104.774 130.187Z" fill="#E3B8BC"/>
<path d="M32.1572 83.4382C32.1572 83.4382 33.9127 89.3355 34.8561 89.8744C35.7994 90.4116 38.225 89.3457 38.3579 88.7728C38.489 88.2016 37.5032 82.2788 37.5032 82.2788C37.5032 82.2788 33.5417 83.3957 32.1572 83.4382Z" fill="#BD9BAA"/>
<path d="M42.0297 45.8886C43.3975 49.1509 41.2155 62.0199 45.5075 78.634C45.9948 80.5244 42.9194 82.7922 39.4194 83.9635L39.3013 83.5266C34.3208 59.6229 37.0289 46.8423 38.6663 44.5541C39.7129 44.7445 40.5916 45.0471 41.2857 45.382C41.5386 45.518 41.7934 45.6931 42.0297 45.8886Z" fill="#BB3767"/>
<path d="M39.3014 83.5266L39.4195 83.9635C37.1674 84.7251 34.2064 84.9835 30.5642 84.3409C21.2992 82.6936 18.6815 64.0463 22.248 53.5607C24.7383 46.2575 31.0128 44.2022 35.9767 44.2906C36.9366 44.3093 37.8578 44.4045 38.6664 44.5541C38.1846 46.1079 34.3209 59.6229 39.3014 83.5266Z" fill="#D73D6F"/>
</svg>
