<svg width="171" height="218" viewBox="0 0 171 218" fill="none" xmlns="http://www.w3.org/2000/svg">
<path d="M83.3099 212.429C82.9242 212.419 82.568 212.186 82.4475 211.826C81.0297 207.594 80.6834 195.123 80.6704 194.595C80.6561 194.126 81.0589 193.737 81.5688 193.728C82.0628 193.689 82.5035 194.093 82.5142 194.56C82.5185 194.686 82.8681 207.321 84.212 211.332C84.3617 211.781 84.0896 212.255 83.6025 212.393C83.504 212.42 83.4058 212.431 83.3099 212.429Z" fill="#3D3942"/>
<path d="M81.1035 209.776C79.1473 209.728 76.5739 210.23 75.2364 211.457C74.6149 212.028 74.2951 212.721 74.3139 213.461C74.3253 213.975 74.6319 215.178 77.1786 215.241C79.3378 215.294 82.5975 214.516 84.0055 213.274C84.5019 212.837 84.7592 212.359 84.768 211.849C84.7911 210.606 83.4214 209.833 81.1035 209.776Z" fill="#3D3942"/>
<path d="M55.2102 210.723C54.7138 210.711 54.3129 210.339 54.3076 209.878C54.2628 205.452 57.8129 193.43 57.9638 192.92C58.0986 192.469 58.6 192.204 59.0992 192.327C59.5892 192.453 59.8787 192.921 59.7457 193.375C59.7076 193.497 56.1112 205.678 56.1544 209.871C56.1595 210.338 55.7494 210.723 55.2397 210.724C55.2305 210.724 55.2194 210.723 55.2102 210.723Z" fill="#3D3942"/>
<path d="M50.5927 207.07C48.1106 207.009 46.4344 207.82 45.9958 209.294C45.853 209.77 45.9574 210.257 46.2889 210.668C47.4215 212.075 50.8873 212.231 51.5701 212.248C52.8693 212.28 55.9483 212.173 56.5226 210.514C56.6934 210.023 56.5918 209.497 56.2356 209.038C55.2977 207.826 52.6283 207.12 50.5927 207.07Z" fill="#3D3942"/>
<path d="M75.715 95.6198C68.3868 95.4403 58.1546 92.2936 50.0118 78.7043C49.7634 78.2918 49.9257 77.7754 50.3725 77.5499C50.8138 77.3261 51.3789 77.4743 51.6255 77.8867C65.0548 100.295 83.6395 92.9452 84.4248 92.621C84.8856 92.4299 85.4368 92.6203 85.646 93.0488C85.8553 93.4757 85.6528 93.9792 85.1901 94.1719C85.1006 94.2088 81.2311 95.755 75.715 95.6198Z" fill="#3D3942"/>
<path d="M53.8127 74.0819C55.0496 74.5441 53.7511 78.3265 51.6485 79.3582C49.5457 80.395 44.2495 77.6941 44.8146 76.6349C45.3835 75.5758 48.4428 77.7016 48.4428 77.7016C48.4428 77.7016 46.1817 74.0479 46.8995 73.5401C47.6192 73.0305 50.0389 76.0946 50.0389 76.0946C50.0389 76.0946 49.2748 72.6851 50.2654 72.3506C51.2559 72.0194 51.7059 76.5623 51.7059 76.5623C51.7059 76.5623 52.7294 73.6778 53.8127 74.0819Z" fill="#3D3942"/>
<path d="M150.242 31.8061C150.253 34.3572 150.112 37.0745 149.821 39.9242C147.852 40.4201 136.18 42.7189 127.881 30.9861C119.135 18.6642 129.305 6.04054 129.305 6.04054L129.326 5.939C132.63 6.73418 135.545 7.62181 137.995 8.60013C137.549 9.47347 133.049 19.0391 137.607 25.1706C142.97 32.3931 149.464 31.8891 150.242 31.8061Z" fill="#EC60AB"/>
<path d="M150.241 31.8061C149.464 31.8891 142.97 32.3932 137.607 25.1706C133.049 19.0391 137.549 9.4735 137.995 8.60017C140.134 9.46883 141.92 10.4139 143.28 11.4335C148.158 15.0731 150.216 22.2997 150.241 31.8061Z" fill="#387AA3"/>
<path d="M149.821 39.9242C149.57 42.6219 149.206 45.4358 148.728 48.366C138.598 55.6 116.117 46.1215 111.482 28.8158C107.743 14.831 116.531 5.09838 117.743 3.86969C121.958 4.4321 125.856 5.12279 129.326 5.93903L129.305 6.04056C129.305 6.04056 119.135 18.6642 127.881 30.9862C136.18 42.719 147.851 40.4201 149.821 39.9242Z" fill="#EBD432"/>
<path d="M148.728 48.366C148.4 50.4326 148.016 52.5489 147.575 54.7147L147.299 54.6739C147.299 54.6739 115.21 49.9765 103.182 71.3803C95.3624 85.286 97.5925 97.5162 102.916 107.101L97.9677 108.579C93.1018 97.6613 82.0098 92.1519 80.3123 91.3451C84.7879 79.7553 87.365 71.0438 85.5857 68.2964C81.5289 62.0411 36.2289 69.7398 18.7162 63.2569C1.20354 56.774 1.04031 30.276 12.7877 20.3438C33.1143 3.17353 84.9461 -0.555964 117.743 3.86973C116.531 5.09841 107.743 14.8311 111.482 28.8159C116.117 46.1216 138.597 55.6001 148.728 48.366Z" fill="#6BCDC8"/>
<path d="M147.299 54.674L147.575 54.7147C147.026 57.5241 146.383 60.3993 145.683 63.341C144.801 63.1663 115.883 57.9174 109.898 82.1391C104.895 102.44 127.952 117.017 127.952 117.017L128.465 117.182C126.965 121.125 125.466 125.016 123.97 128.806C121.643 127.32 109.724 119.393 102.916 107.102C97.5925 97.5163 95.3624 85.286 103.182 71.3804C115.21 49.9766 147.299 54.674 147.299 54.674Z" fill="#8CC53B"/>
<path d="M145.683 63.341C144.863 66.6879 143.966 70.118 143.013 73.5977L142.573 73.4849C142.573 73.4849 125.309 68.1304 121.589 85.8266C119.31 96.688 131.921 105.755 131.921 105.755L132.581 105.958C131.233 109.734 129.848 113.492 128.465 117.182L127.952 117.017C127.952 117.017 104.895 102.44 109.898 82.1391C115.883 57.9174 144.801 63.1664 145.683 63.341Z" fill="#EBD432"/>
<path d="M142.573 73.4849L143.013 73.5977C140.059 84.1365 136.447 95.1523 132.581 105.958L131.921 105.755C131.921 105.755 119.31 96.688 121.589 85.8266C125.309 68.1304 142.573 73.4849 142.573 73.4849Z" fill="#EC60AB"/>
<path d="M123.97 128.806C119.58 139.939 115.265 150.22 111.604 158.717L111.311 158.608C101.586 153.081 86.9874 153.523 79.7449 155.947C58.7811 162.95 53.2302 184.512 52.3535 188.64C52.028 188.36 51.7209 188.08 51.4138 187.801C46.5226 183.192 49.6163 169.221 55.5883 152.328C55.5883 152.328 87.5885 153.861 96.716 134.039C101.553 123.529 100.855 115.094 97.9677 108.579L102.916 107.102C109.724 119.393 121.643 127.32 123.97 128.806Z" fill="#6BCDC8"/>
<path d="M111.311 158.608L111.604 158.717C110.527 161.225 109.491 163.582 108.551 165.753L107.453 165.333C71.609 154.898 61.9366 189.419 60.8096 193.966C57.7405 192.615 54.8667 190.827 52.3536 188.64C53.2303 184.512 58.7813 162.95 79.745 155.947C86.9875 153.523 101.586 153.081 111.311 158.608Z" fill="#387AA3"/>
<path d="M107.453 165.333L108.551 165.753C106.596 170.192 104.935 173.91 103.722 176.688L103.484 176.595C76.7896 171.06 73.7334 193.296 73.4044 196.927C69.0881 196.736 64.7734 195.73 60.8096 193.966C61.9366 189.419 71.609 154.898 107.453 165.333Z" fill="#EBD432"/>
<path d="M103.484 176.595L103.722 176.688C103.293 177.645 102.903 178.485 102.589 179.211C96.938 192.062 85.1168 197.469 73.4045 196.927C73.7335 193.296 76.7897 171.06 103.484 176.595Z" fill="#8CC53B"/>
<path d="M97.9678 108.579C100.855 115.094 101.553 123.529 96.7162 134.039C87.5886 153.861 55.5885 152.328 55.5885 152.328C56.8176 148.889 58.1603 145.336 59.5601 141.714L59.9447 141.844C59.9447 141.844 84.0155 143.691 89.1048 125.894C94.1938 108.112 77.7337 97.8629 77.7337 97.8629C78.6384 95.6064 79.5045 93.417 80.3124 91.3452C82.0099 92.152 93.1019 97.6613 97.9678 108.579Z" fill="#EC60AB"/>
<path d="M77.7336 97.8631C77.7336 97.8631 94.1938 108.112 89.1048 125.894C84.0154 143.691 59.9446 141.845 59.9446 141.845L59.5601 141.714C61.037 137.96 62.5898 134.121 64.1796 130.283L64.3444 130.338C64.3444 130.338 78.5478 131.706 81.2493 122.437C84.2539 112.103 74.2322 106.62 74.2322 106.62L74.1223 106.583C75.3779 103.57 76.5941 100.658 77.7336 97.8631Z" fill="#387AA3"/>
<path d="M74.2322 106.62C74.2322 106.62 84.2538 112.103 81.2493 122.436C78.5478 131.706 64.3444 130.338 64.3444 130.338L64.1795 130.283C67.4789 122.235 70.9457 114.141 74.1223 106.583L74.2322 106.62Z" fill="#EBD432"/>
<path d="M40.6409 30.2329C40.7025 27.7176 38.5415 25.6275 35.8121 25.5606C33.0845 25.4938 30.8201 27.4755 30.7585 29.9907C30.6969 32.5043 32.8615 34.5962 35.5891 34.663C38.3185 34.7299 40.5793 32.7464 40.6409 30.2329Z" fill="#3D3942"/>
<path d="M92.4487 25.9756C92.5104 23.4604 90.3494 21.3702 87.62 21.3033C84.8924 21.2365 82.628 23.2182 82.5663 25.7335C82.5048 28.247 84.6694 30.3389 87.3969 30.4058C90.1264 30.4726 92.3871 28.4892 92.4487 25.9756Z" fill="#3D3942"/>
<path d="M43.7701 30.5629C40.6376 35.7901 48.4448 41.1458 63.5345 40.2554C78.6242 39.3634 80.1791 31.8206 78.3294 29.012C75.7533 25.1006 71.129 29.3406 60.8378 30.0339C51.9411 30.6339 46.3403 26.2726 43.7701 30.5629Z" fill="white"/>
<path d="M40.2961 46.5612C40.4164 41.6514 36.1937 37.567 30.8622 37.4364C25.5307 37.3057 21.113 41.1784 20.9927 46.0882C20.8724 50.998 25.0951 55.0824 30.4266 55.2131C35.7581 55.3437 40.1758 51.471 40.2961 46.5612Z" fill="#EC60AB"/>
<path d="M103.101 44.0001C103.221 39.0903 98.995 35.0058 93.6672 34.8753C88.3376 34.7447 83.9162 38.6173 83.7959 43.5271C83.6756 48.4369 87.902 52.5214 93.2317 52.6519C98.5595 52.7825 102.981 48.91 103.101 44.0001Z" fill="#EC60AB"/>
<path d="M43.8828 31.7696C43.8828 31.7696 45.9469 32.5344 49.2181 33.1723C50.8478 33.5098 52.7727 33.7781 54.8433 33.9802C55.8804 34.0838 56.9535 34.1475 58.0458 34.1828C59.1306 34.2247 60.2648 34.2031 61.3399 34.1886C62.4674 34.1448 63.595 34.0959 64.6523 33.9756C65.7224 33.8641 66.7895 33.7185 67.799 33.5171C68.8137 33.3277 69.7901 33.1186 70.6992 32.8688C71.6116 32.6327 72.4621 32.3645 73.2316 32.084C74.774 31.5334 76.0228 30.9841 76.859 30.5421C77.7007 30.1053 78.1253 29.8096 78.1253 29.8096C78.285 29.6962 78.5133 29.7239 78.639 29.8698C78.7574 30.0121 78.7302 30.2155 78.5889 30.3311C78.5889 30.3311 76.8112 31.7415 73.65 33.0159C72.863 33.3351 71.9949 33.6454 71.0593 33.9234C70.1271 34.2118 69.1269 34.4849 68.0733 34.6818C67.0245 34.9044 65.9348 35.0665 64.807 35.1987C63.6642 35.339 62.5419 35.4 61.4233 35.4576C59.1027 35.513 56.8416 35.398 54.707 35.1706C52.5778 34.95 50.6191 34.5518 48.9631 34.1592C45.6482 33.3467 43.5816 32.3812 43.5816 32.3812C43.4027 32.2969 43.3301 32.0945 43.4209 31.9283C43.506 31.7723 43.7071 31.7058 43.8828 31.7696Z" fill="#3D3942"/>
<path d="M129.807 93.2432C128.024 93.1995 126.937 93.0148 126.884 93.0066C126.384 92.9145 126.057 92.4677 126.155 92.0076C126.251 91.5474 126.724 91.2495 127.235 91.3385C128.255 91.5268 152.315 95.5054 161.199 65.8689C161.334 65.4182 161.841 65.15 162.334 65.2795C162.826 65.4071 163.115 65.8768 162.981 66.3275C155.486 91.3165 136.997 93.4194 129.807 93.2432Z" fill="#3D3942"/>
<path d="M157.32 61.9307C156.016 62.7779 158.682 66.8632 161.444 67.5448C164.212 68.2282 169.564 63.7594 168.581 62.6674C167.601 61.5738 164.682 64.8132 164.682 64.8132C164.682 64.8132 166.205 59.9938 165.211 59.5801C164.22 59.1664 162.328 63.339 162.328 63.339C162.328 63.339 162.181 59.1725 160.927 59.0329C159.669 58.8916 160.527 64.2981 160.527 64.2981C160.527 64.2981 158.459 61.1916 157.32 61.9307Z" fill="#3D3942"/>
<path d="M43.7701 30.5629C43.7701 30.5629 43.8161 31.8462 44.3429 32.3556L43.1496 33.9554C43.1496 33.9554 42.7405 31.7348 43.7701 30.5629Z" fill="#3D3942"/>
<path d="M77.964 28.4791C77.964 28.4791 78.0527 29.7601 77.5813 30.3097L78.9387 31.8071C78.9387 31.8071 79.11 29.5615 77.964 28.4791Z" fill="#3D3942"/>
</svg>
