<svg width="173" height="255" viewBox="0 0 173 255" fill="none" xmlns="http://www.w3.org/2000/svg">
<path d="M49.2233 250.442C48.7286 250.442 48.3188 250.079 48.3022 249.618C48.1342 244.793 51.6914 231.562 51.8428 231.001C51.9664 230.545 52.4649 230.27 52.9615 230.383C53.4562 230.494 53.7589 230.957 53.6352 231.412C53.5983 231.549 49.9875 244.971 50.1463 249.565C50.1648 250.034 49.7642 250.427 49.2547 250.442C49.2455 250.442 49.2344 250.442 49.2233 250.442Z" fill="#1E1617"/>
<path d="M44.0765 246.728C41.4072 246.728 39.6295 247.637 39.1976 249.223C39.0628 249.721 39.1847 250.228 39.5391 250.648C40.7925 252.127 44.551 252.202 45.2912 252.202C46.6905 252.202 50.0077 252.01 50.5726 250.233C50.7369 249.716 50.6169 249.171 50.2311 248.696C49.1918 247.418 46.2844 246.728 44.0765 246.728Z" fill="#1F1718"/>
<path d="M103.189 252.392C103.126 252.392 103.062 252.386 102.995 252.375C102.497 252.275 102.179 251.823 102.286 251.366C103.305 246.981 102.369 233.517 102.358 233.381C102.325 232.912 102.711 232.508 103.219 232.476C103.756 232.436 104.169 232.803 104.201 233.271C104.241 233.833 105.162 247.108 104.092 251.721C103.998 252.12 103.616 252.392 103.189 252.392Z" fill="#1E1617"/>
<path d="M106.632 249.433C105.877 249.433 103.326 249.519 102.229 250.643C101.86 251.02 101.694 251.469 101.749 251.945C102.011 254.191 106.746 254.916 108.998 254.916C110.665 254.916 111.823 254.611 112.436 254.005C112.779 253.669 112.943 253.249 112.91 252.795C112.742 250.471 109.635 249.433 106.632 249.433Z" fill="#1F1718"/>
<path d="M168.613 141.53C167.063 141.938 165.403 142.125 163.705 142.125C153.441 142.125 145.114 134.713 145.114 125.567C145.114 120.484 147.68 115.928 151.722 112.885L151.907 112.749C157.962 119.685 164.628 129.375 168.613 141.53Z" fill="#EBD432"/>
<path d="M74.6884 208C81.6479 208 87.2966 213.032 87.2966 219.237C87.2966 225.442 81.6479 230.474 74.6884 230.474C67.729 230.474 62.1006 225.442 62.1006 219.237C62.1006 213.032 67.729 208 74.6884 208Z" fill="#EBD432"/>
<path d="M125.123 183.282C135.369 183.282 143.692 190.711 143.692 199.857C143.692 209.003 135.369 216.432 125.123 216.432C114.86 216.432 106.532 209.003 106.532 199.857C106.532 190.711 114.86 183.282 125.123 183.282Z" fill="#EBD432"/>
<path d="M151.962 156.254C151.962 165.806 143.288 173.541 132.561 173.541C121.856 173.541 113.178 165.806 113.178 156.254C113.178 146.681 121.856 138.946 132.561 138.946C143.288 138.946 151.962 146.681 151.962 156.254Z" fill="#EBD432"/>
<path d="M74.4503 149.758C71.8659 152.563 67.9505 154.365 63.5755 154.365C55.8408 154.365 49.5459 148.755 49.5459 141.836C49.5459 134.934 55.8408 129.324 63.5755 129.324C66.0879 129.324 68.4508 129.904 70.4814 130.939C69.5215 133.013 68.9861 135.291 68.9861 137.671C68.9861 142.363 71.0536 146.63 74.4503 149.758Z" fill="#EBD432"/>
<path d="M94.7178 182.976C94.7178 190.354 88.0187 196.338 79.7283 196.338C71.4582 196.338 64.7388 190.354 64.7388 182.976C64.7388 175.581 71.4582 169.597 79.7283 169.597C88.0187 169.597 94.7178 175.581 94.7178 182.976Z" fill="#EBD432"/>
<path d="M45.2266 197.681C45.2266 207.286 38.1398 215.412 28.3741 218.132L28.0409 218.489C16.5221 209.411 7.92026 197.307 3.45312 183.044L3.74793 182.959C8.12276 178.828 14.3257 176.261 21.1926 176.244C34.4644 176.244 45.2266 185.849 45.2266 197.681Z" fill="#EBD432"/>
<path d="M34.9256 146.953C34.9256 157.612 25.2535 166.248 13.31 166.248C8.28909 166.248 3.65526 164.718 0.0188273 162.151C0.0188273 161.437 0 160.723 0 160.009C0 147.123 3.9689 136.498 9.52573 127.964C10.7624 127.779 12.0178 127.675 13.31 127.675C25.2535 127.675 34.9256 136.311 34.9256 146.953Z" fill="#EBD432"/>
<path d="M87.2968 219.237C87.2968 213.032 81.648 208 74.6886 208C67.7292 208 62.1008 213.032 62.1008 219.237C62.1008 225.442 67.7292 230.474 74.6886 230.474C81.648 230.474 87.2968 225.442 87.2968 219.237ZM79.7282 196.338C88.0186 196.338 94.7177 190.354 94.7177 182.976C94.7177 175.581 88.0186 169.597 79.7282 169.597C71.4581 169.597 64.7387 175.581 64.7387 182.976C64.7387 190.354 71.4581 196.338 79.7282 196.338ZM104.171 75.7571C104.171 68.7752 98.2251 63.1363 90.915 63.1363C83.6048 63.1363 77.6607 68.7752 77.6607 75.7571C77.6607 82.7203 83.6048 88.3779 90.915 88.3779C98.2251 88.3779 104.171 82.7203 104.171 75.7571ZM108.157 137.671C108.157 128.015 99.3881 120.178 88.5706 120.178C80.4297 120.178 73.4518 124.615 70.4816 130.939C68.451 129.904 66.0881 129.324 63.5757 129.324C55.841 129.324 49.5461 134.934 49.5461 141.836C49.5461 148.755 55.841 154.365 63.5757 154.365C67.9507 154.365 71.8661 152.563 74.4505 149.758C77.993 153.09 83.0159 155.164 88.5706 155.164C99.3881 155.164 108.157 147.329 108.157 137.671ZM143.692 199.857C143.692 190.711 135.368 183.282 125.123 183.282C114.859 183.282 106.532 190.711 106.532 199.857C106.532 209.003 114.859 216.432 125.123 216.432C135.368 216.432 143.692 209.003 143.692 199.857ZM132.561 173.541C143.288 173.541 151.962 165.806 151.962 156.254C151.962 146.681 143.288 138.946 132.561 138.946C121.856 138.946 113.178 146.681 113.178 156.254C113.178 165.806 121.856 173.541 132.561 173.541ZM168.613 141.53C171.55 150.387 173.045 160.519 171.881 171.858C167.212 217.078 119.27 239.688 75.9993 236.458C57.5227 235.081 40.9456 228.672 28.0408 218.489L28.374 218.132C38.1397 215.412 45.2265 207.286 45.2265 197.681C45.2265 185.849 34.4643 176.244 21.1925 176.244C14.3255 176.261 8.12261 178.828 3.74777 182.959L3.45297 183.044C1.40354 176.499 0.222472 169.512 0.019043 162.151C3.65548 164.718 8.28931 166.248 13.3102 166.248C25.2537 166.248 34.9258 157.612 34.9258 146.953C34.9258 136.311 25.2537 127.675 13.3102 127.675C12.018 127.675 10.7626 127.779 9.52594 127.964C22.2633 108.346 43.2697 99.7101 43.2697 99.7101C43.2697 99.7101 22.2266 56.6491 54.9549 31.3361C87.7048 6.04014 142.66 21.1191 150.836 56.6491C157.428 85.2601 138.56 100.254 138.56 100.254C138.56 100.254 144.8 104.589 151.907 112.749L151.722 112.885C147.679 115.928 145.114 120.484 145.114 125.567C145.114 134.713 153.441 142.125 163.705 142.125C165.403 142.125 167.062 141.938 168.613 141.53Z" fill="#387AA3"/>
<path d="M81.2696 40.9003C81.2696 48.4075 74.661 54.4952 66.509 54.4952C58.3553 54.4952 51.7466 48.4075 51.7466 40.9003C51.7466 33.3914 58.3553 27.3054 66.509 27.3054C74.661 27.3054 81.2696 33.3914 81.2696 40.9003Z" fill="#22191B"/>
<path d="M66.5088 29.0054C59.3851 29.0054 53.5924 34.3417 53.5924 40.9003C53.5924 47.4589 59.3851 52.7952 66.5088 52.7952C73.6289 52.7952 79.4235 47.4589 79.4235 40.9003C79.4235 34.3417 73.6289 29.0054 66.5088 29.0054ZM66.5088 56.1952C57.3508 56.1952 49.9004 49.334 49.9004 40.9003C49.9004 32.4666 57.3508 25.6054 66.5088 25.6054C75.665 25.6054 83.1155 32.4666 83.1155 40.9003C83.1155 49.334 75.665 56.1952 66.5088 56.1952Z" fill="#C81856"/>
<path d="M133.155 40.9003C133.155 48.4075 126.547 54.4952 118.395 54.4952C110.241 54.4952 103.632 48.4075 103.632 40.9003C103.632 33.3914 110.241 27.3054 118.395 27.3054C126.547 27.3054 133.155 33.3914 133.155 40.9003Z" fill="#22191B"/>
<path d="M118.395 29.0054C111.271 29.0054 105.478 34.3417 105.478 40.9003C105.478 47.4589 111.271 52.7952 118.395 52.7952C125.516 52.7952 131.309 47.4589 131.309 40.9003C131.309 34.3417 125.516 29.0054 118.395 29.0054ZM118.395 56.1952C109.237 56.1952 101.786 49.334 101.786 40.9003C101.786 32.4666 109.237 25.6054 118.395 25.6054C127.553 25.6054 135.001 32.4666 135.001 40.9003C135.001 49.334 127.553 56.1952 118.395 56.1952Z" fill="#C81856"/>
<path d="M103.63 42.6002C103.254 42.6002 102.872 42.4948 102.545 42.2755C92.0447 35.2273 82.8221 41.9287 82.4345 42.2177C81.6462 42.8076 80.4832 42.6988 79.839 41.9729C79.1984 41.2453 79.3129 40.1794 80.0993 39.5861C80.2174 39.4977 91.8749 30.911 104.718 39.5249C105.543 40.0791 105.724 41.1433 105.124 41.9015C104.762 42.3571 104.201 42.6002 103.63 42.6002Z" fill="#C81856"/>
<path d="M86.6191 44.6912C86.6191 44.7167 86.717 44.9054 86.9514 45.3593C87.1859 45.7877 87.5514 46.3895 88.083 46.9675C88.3618 47.2463 88.6608 47.5336 89.0116 47.7835C89.3642 48.0266 89.7444 48.2562 90.1819 48.4245C90.3887 48.5231 90.6176 48.5961 90.8612 48.6522C91.092 48.7253 91.3375 48.7831 91.5978 48.8188C92.063 48.9361 92.7349 48.9395 93.1466 48.9497C93.4678 48.9395 93.8684 48.9497 94.1231 48.9191C94.3336 48.8715 94.5403 48.846 94.7563 48.8171C94.976 48.7372 95.2067 48.693 95.4319 48.6335L96.0337 48.3666C96.3937 48.1439 96.7592 47.9229 97.0472 47.622C97.3352 47.3279 97.6102 47.0152 97.817 46.6803C98.2453 46.0224 98.5203 45.3661 98.6883 44.9037C98.8415 44.4532 98.9301 44.1949 98.9301 44.1949L99.0593 43.8174C99.2126 43.3635 99.7368 43.1119 100.23 43.253C100.673 43.3805 100.94 43.7852 100.876 44.1949C100.872 44.2204 100.948 44.5807 100.951 45.1978C100.948 45.8149 100.887 46.7091 100.496 47.7699C100.119 48.8171 99.3381 50.0836 97.9739 51.0101C97.6361 51.2311 97.2595 51.4181 96.8866 51.617C96.4989 51.7683 96.1002 51.9162 95.6904 52.042C95.251 52.1338 94.7932 52.2086 94.3391 52.2766C93.9238 52.3259 93.6413 52.3174 93.285 52.3412L93.0303 52.3514L92.9675 52.3531L92.8051 52.3514L92.7663 52.348L92.6168 52.3362L92.015 52.2783C91.6163 52.2545 91.2157 52.1882 90.8151 52.0913C90.4164 52.0148 90.0232 51.9197 89.6447 51.7616C89.2626 51.6307 88.8971 51.4725 88.5519 51.2753C87.8431 50.9285 87.2413 50.4458 86.7521 49.9562C86.2463 49.4717 85.8771 48.9413 85.5891 48.4449C85.0113 47.4453 84.8211 46.5408 84.7344 45.922C84.6568 45.3185 84.6864 44.8816 84.6864 44.9088C84.6218 44.4175 85.0002 43.9721 85.5337 43.9109C86.0672 43.8497 86.5527 44.1982 86.6191 44.6912Z" fill="#1F1718"/>
<path d="M84.7565 14.462C84.7565 14.462 84.426 14.003 84.0402 13.2771C83.6396 12.5563 83.215 11.5601 82.8126 10.5554C82.6391 10.0471 82.4656 9.53535 82.3013 9.05765C82.1462 8.57655 82.0465 8.11245 81.9376 7.72145C81.7512 6.93435 81.6866 6.38695 81.6847 6.38695C81.657 6.13535 81.8546 5.90756 82.1296 5.88036C82.3253 5.86166 82.5062 5.94835 82.604 6.09115C82.604 6.09115 82.9234 6.55525 83.3111 7.28115C83.4901 7.64665 83.7264 8.06655 83.9295 8.53235C84.127 8.99985 84.3374 9.49795 84.5479 9.99775C84.9115 11.0127 85.2549 12.0361 85.4284 12.8283C85.6185 13.6171 85.6739 14.1662 85.6739 14.1662C85.6998 14.4212 85.4967 14.6455 85.2198 14.6676C85.0297 14.6846 84.8543 14.5997 84.7565 14.462Z" fill="#3D3942"/>
<path d="M91.7439 13.3059C91.7439 13.3059 91.598 12.4984 91.4947 11.2863C91.3747 10.0742 91.3304 8.45923 91.3101 6.84423C91.3304 6.03673 91.3488 5.23094 91.3673 4.47274C91.3931 3.71624 91.4651 3.00903 91.502 2.40383C91.6073 1.19173 91.7439 0.384234 91.7439 0.384234C91.7845 0.137734 92.0355 -0.0322629 92.3051 0.00513709C92.5229 0.0357371 92.6835 0.195534 92.7167 0.384234C92.7167 0.384234 92.8515 1.19173 92.9585 2.40383C92.9955 3.00903 93.0675 3.71624 93.0933 4.47274C93.1099 5.23094 93.1302 6.03673 93.1487 6.84423C93.1302 8.45923 93.0859 10.0742 92.9659 11.2863C92.8625 12.4984 92.7167 13.3059 92.7167 13.3059C92.6724 13.5524 92.4177 13.7207 92.15 13.6782C91.9359 13.6476 91.7771 13.4912 91.7439 13.3059Z" fill="#3D3942"/>
<path d="M99.872 14.2019C99.872 14.2019 99.896 13.5882 100.042 12.6923C100.173 11.7947 100.459 10.6217 100.767 9.45716C100.952 8.88086 101.135 8.30456 101.306 7.76566C101.484 7.22676 101.698 6.73547 101.858 6.30877C102.207 5.46387 102.503 4.91476 102.503 4.91476C102.624 4.68696 102.922 4.59687 103.167 4.70737C103.35 4.79067 103.453 4.96407 103.444 5.14087C103.444 5.14087 103.411 5.75287 103.265 6.64877C103.178 7.09077 103.104 7.61606 102.975 8.16686C102.838 8.71426 102.693 9.29906 102.547 9.88556C102.2 11.0416 101.829 12.1908 101.465 13.034C101.118 13.8806 100.813 14.428 100.813 14.428C100.688 14.6541 100.387 14.7425 100.141 14.6269C99.9643 14.5419 99.8646 14.3753 99.872 14.2019Z" fill="#3D3942"/>
<path d="M55.902 122.089C55.5753 122.089 55.2448 122.079 54.9051 122.055C51.1393 121.8 48.1931 120.513 46.1496 118.235C42.3616 114.012 43.0815 107.938 43.1129 107.681C43.1738 107.216 43.6242 106.874 44.1356 106.937C44.6432 106.989 45.005 107.411 44.9478 107.877C44.9404 107.933 44.2925 113.506 47.5784 117.159C49.2896 119.063 51.8002 120.139 55.0399 120.358C66.5996 121.174 69.3593 105.541 69.387 105.385C69.4645 104.921 69.9316 104.609 70.4411 104.676C70.945 104.749 71.2902 105.182 71.2109 105.646C71.1813 105.815 68.2887 122.089 55.902 122.089Z" fill="#1E1617"/>
<path d="M67.9695 104.615C69.2137 105.793 71.7371 106.721 73.3007 105.697C74.868 104.683 77.3748 100.577 76.8063 99.6914C75.9331 98.328 73.5111 101.949 73.5111 101.949C73.5111 101.949 75.6525 97.8639 74.8495 97.3811C73.4687 96.5498 71.2572 100.767 71.2572 100.767C71.2572 100.767 70.9323 96.6841 70.0277 96.5634C69.1232 96.441 68.5029 101.697 68.5029 101.697C68.5029 101.697 67.2587 98.1172 66.4243 99.1389C65.5881 100.162 66.6293 103.345 67.9695 104.615Z" fill="#1F1718"/>
<path d="M122.373 122.303C109.105 122.303 107.437 105.006 107.422 104.83C107.381 104.363 107.76 103.955 108.267 103.916C108.773 103.882 109.22 104.227 109.262 104.695C109.275 104.853 110.807 120.603 122.373 120.603C125.625 120.603 128.217 119.699 130.076 117.912C133.654 114.473 133.439 108.892 133.436 108.837C133.414 108.368 133.809 107.97 134.318 107.95C134.844 107.972 135.26 108.295 135.28 108.764C135.293 109.023 135.524 115.132 131.409 119.087C129.188 121.22 126.148 122.303 122.373 122.303Z" fill="#1E1617"/>
<path d="M111.509 104.497C110.283 105.691 107.775 106.651 106.194 105.652C104.612 104.654 102.045 100.58 102.6 99.6897C103.451 98.3144 105.927 101.903 105.927 101.903C105.927 101.903 104.369 97.3862 105.275 97.0904C107.138 96.4852 108.164 100.691 108.164 100.691C108.164 100.691 108.421 96.5787 109.329 96.475C110.976 96.2829 110.931 101.587 110.931 101.587C110.931 101.587 112.12 97.9948 112.971 99.0046C113.822 100.014 112.829 103.212 111.509 104.497Z" fill="#1F1718"/>
<path d="M71.0371 68.3536C71.0371 75.2675 64.7552 80.8724 57.0057 80.8724C49.258 80.8724 42.9761 75.2675 42.9761 68.3536C42.9761 61.4414 49.258 55.8365 57.0057 55.8365C64.7552 55.8365 71.0371 61.4414 71.0371 68.3536Z" fill="#EBD432"/>
<path d="M143.469 69.87C143.469 76.7822 137.187 82.3871 129.439 82.3871C121.69 82.3871 115.408 76.7822 115.408 69.87C115.408 62.9578 121.69 57.3529 129.439 57.3529C137.187 57.3529 143.469 62.9578 143.469 69.87Z" fill="#EBD432"/>
</svg>
