<svg width="134" height="244" viewBox="0 0 134 244" fill="none" xmlns="http://www.w3.org/2000/svg">
<path d="M29.2273 239.547C28.7325 239.547 28.3227 239.185 28.3061 238.724C28.1344 233.735 31.8117 220.059 31.9686 219.477C32.0923 219.022 32.5907 218.748 33.0872 218.858C33.582 218.97 33.8829 219.431 33.7611 219.889C33.7223 220.028 29.9878 233.917 30.1503 238.672C30.1669 239.139 29.7681 239.534 29.2568 239.547C29.2476 239.547 29.2383 239.547 29.2273 239.547Z" fill="#1F1718"/>
<path d="M19.7835 238.532C19.1688 240.791 29.008 241.31 29.7094 239.114C30.4072 236.917 20.7194 235.086 19.7835 238.532Z" fill="#1F1718"/>
<path d="M63.8143 240.547C63.4284 240.547 63.0685 240.323 62.9393 239.965C61.2206 235.231 60.4859 221.156 60.4545 220.558C60.4324 220.091 60.8256 219.693 61.3332 219.671C61.8593 219.63 62.2765 220.011 62.2987 220.48C62.306 220.625 63.0519 234.915 64.6893 239.428C64.8517 239.874 64.5914 240.355 64.1077 240.505C64.0099 240.533 63.9103 240.547 63.8143 240.547Z" fill="#1F1718"/>
<path d="M54.7132 242.033C54.8277 244.36 64.4158 242.257 64.4029 239.967C64.3881 237.679 54.5397 238.487 54.7132 242.033Z" fill="#1F1718"/>
<path d="M75.2129 79.1353C75.2129 71.9613 67.8474 66.1473 58.7651 66.1473C49.6643 66.1473 42.2988 71.9613 42.2988 79.1353C42.2988 86.3093 49.6643 92.1403 58.7651 92.1403C67.8474 92.1403 75.2129 86.3093 75.2129 79.1353ZM130.076 65.3653C143.718 116.841 113.9 158.536 91.7475 192.535C70.5241 225.111 43.4987 232.991 30.213 221.72C14.4389 208.335 54.8331 142.528 56.5499 133.078C58.2666 123.624 25.2048 127.823 6.9663 101.065C-11.2722 74.2903 6.72632 27.1663 55.9776 21.796C99.3032 17.0683 124.372 43.8433 130.076 65.3653Z" fill="#842A98"/>
<path d="M74.2309 16.9086C73.6937 15.6693 80.7196 1.36719 81.6481 0.513789C82.573 -0.341311 88.0556 10.3534 88.0556 10.3534C88.0556 10.3534 98.3378 -0.167912 100.935 0.0020876C103.532 0.172088 104.828 15.7135 104.828 15.7135C104.828 15.7135 115.399 8.19949 117.069 10.418C118.738 12.6382 112.061 27.6679 110.575 28.1796C109.093 28.693 104.642 25.106 92.7758 21.1773C83.2763 18.0357 74.5983 17.762 74.2309 16.9086Z" fill="#E9B31D"/>
<path d="M30.5457 37.941C30.5457 37.941 30.5512 38.026 30.5605 38.1875C30.5752 38.349 30.5974 38.5853 30.6269 38.8845C30.6897 39.488 30.8078 40.3533 31.0774 41.2917C31.2232 41.7558 31.3949 42.2488 31.6422 42.6874C31.8675 43.1498 32.2053 43.5187 32.5394 43.8502C32.7147 44.0134 32.9308 44.1188 33.1209 44.2599C33.3683 44.3262 33.5473 44.486 33.8168 44.5387C34.0956 44.5778 34.3097 44.7172 34.6328 44.7053L35.0832 44.741L35.3084 44.7614L35.3361 44.7648L35.3508 44.7682C35.5059 44.7648 35.1478 44.7733 35.1884 44.7716H35.1976L35.2733 44.7682L35.4247 44.7597C35.7847 44.7274 36.3292 44.7444 36.536 44.673C36.7261 44.5744 36.9144 44.622 37.1341 44.4843C37.579 44.3058 37.9869 44.0746 38.3044 43.6921C38.6404 43.3402 38.9192 42.8812 39.1499 42.412C39.3548 41.9207 39.5339 41.4243 39.6631 40.9415C39.9105 39.9708 40.0175 39.0953 40.0822 38.4867C40.1338 37.8866 40.1652 37.5432 40.1652 37.5432L40.1708 37.4769C40.2132 36.9771 40.6876 36.6065 41.2304 36.6473C41.642 36.6779 41.9743 36.9414 42.0906 37.2848C42.0906 37.2848 42.2253 37.6911 42.3638 38.3779C42.493 39.0698 42.6407 40.0643 42.565 41.307C42.5189 41.9292 42.4284 42.6177 42.2143 43.347C41.9688 44.0746 41.6716 44.877 41.0661 45.6216C40.7763 46.0024 40.4476 46.3679 40.0194 46.6807C39.6336 47.0343 39.1536 47.2808 38.6607 47.512C38.1974 47.7704 37.5513 47.8673 36.9846 48.0101C36.4141 48.1257 36.1354 48.0934 35.6942 48.1444L35.5428 48.1546L35.4672 48.1597L35.277 48.1648L35.253 48.1631L35.2068 48.1597L34.8284 48.1257L34.0771 48.0458C33.5842 48.0254 33.0618 47.8112 32.5671 47.6871C32.0705 47.5443 31.598 47.2553 31.1438 47.0173C30.7322 46.7113 30.3076 46.4002 29.9808 46.0466C29.32 45.3326 28.8492 44.5489 28.6092 43.806C28.3157 43.0648 28.2087 42.3644 28.1514 41.732C28.0351 40.4655 28.1921 39.4574 28.3287 38.7621C28.3914 38.4119 28.48 38.1518 28.5317 37.9529C28.5908 37.7693 28.6222 37.6707 28.6222 37.6707C28.7735 37.1913 29.3181 36.9176 29.8387 37.057C30.2504 37.1692 30.5217 37.5041 30.5439 37.8781L30.5457 37.941Z" fill="#1F1718"/>
<path d="M28.515 49.6794C28.3414 49.6794 28.1679 49.6353 28.0129 49.5418C27.5846 49.2851 27.4628 48.7597 27.7415 48.3653L30.5197 44.4298C30.7966 44.0371 31.367 43.9232 31.7953 44.1816C32.2236 44.4366 32.3455 44.962 32.0667 45.3564L29.2903 49.2919C29.1113 49.5435 28.8159 49.6794 28.515 49.6794Z" fill="#1F1718"/>
<path d="M35.7843 52.0425C35.273 52.0425 34.8613 51.6617 34.8613 51.1925V46.3696C34.8613 45.8987 35.273 45.5196 35.7843 45.5196C36.2938 45.5196 36.7073 45.8987 36.7073 46.3696V51.1925C36.7073 51.6617 36.2938 52.0425 35.7843 52.0425Z" fill="#1F1718"/>
<path d="M43.2647 48.5983C43.0007 48.5983 42.7386 48.4963 42.5558 48.294L39.2441 44.6509C38.9174 44.2905 38.969 43.755 39.3604 43.4524C39.7517 43.1515 40.3332 43.1991 40.66 43.5578L43.9717 47.2026C44.2985 47.563 44.2468 48.0985 43.8554 48.4011C43.6837 48.5337 43.4733 48.5983 43.2647 48.5983Z" fill="#1F1718"/>
<path d="M77.2491 38.0396C77.2491 38.0396 77.2528 38.1263 77.262 38.2878C77.2786 38.4476 77.3008 38.6839 77.3285 38.9848C77.3949 39.5866 77.5112 40.4519 77.7826 41.392C77.9284 41.8544 78.0964 42.3474 78.3456 42.786C78.569 43.2501 78.9086 43.6173 79.2446 43.9505C79.42 44.112 79.6323 44.2191 79.8243 44.3585C80.0735 44.4248 80.2507 44.5846 80.5202 44.639C80.799 44.6781 81.0149 44.8175 81.3361 44.8056L81.7865 44.8396L82.0136 44.8617L82.0413 44.8651L82.0561 44.8685C82.2111 44.8634 81.8512 44.8736 81.8918 44.8719H81.901L81.9767 44.8685L82.1281 44.86C82.488 44.826 83.0308 44.843 83.2412 44.7716C83.4295 44.673 83.6196 44.7223 83.8375 44.5846C84.2824 44.4027 84.6903 44.1732 85.0097 43.7907C85.3438 43.4405 85.6244 42.9798 85.8551 42.5106C86.0582 42.021 86.2391 41.5246 86.3665 41.0401C86.6138 40.0694 86.7191 39.1939 86.7855 38.5853C86.8372 37.9852 86.8667 37.6418 86.8667 37.6418L86.8723 37.5755C86.9184 37.0774 87.3929 36.7051 87.9337 36.7459C88.3454 36.7765 88.6777 37.0383 88.7921 37.3834C88.7921 37.3834 88.9287 37.7897 89.0672 38.4765C89.1964 39.1667 89.3441 40.1612 89.2665 41.4056C89.2204 42.0278 89.1318 42.7146 88.9177 43.4456C88.6722 44.1732 88.3749 44.9739 87.7713 45.7202C87.4796 46.0993 87.1529 46.4648 86.7228 46.781C86.3369 47.1329 85.8607 47.3777 85.366 47.6106C84.9026 47.8673 84.2547 47.9676 83.6898 48.1104C83.1194 48.2226 82.8406 48.1937 82.3994 48.243L82.248 48.2549L82.1724 48.26L81.9804 48.2651L81.9564 48.2634L81.9102 48.26L81.5337 48.2243L80.7823 48.1461C80.2895 48.1257 79.767 47.9115 79.2723 47.7874C78.7757 47.6446 78.3031 47.3556 77.849 47.1176C77.4374 46.8099 77.0147 46.5005 76.6842 46.1469C76.0234 45.4346 75.5544 44.6492 75.3145 43.9046C75.0191 43.1668 74.912 42.4647 74.8548 41.8323C74.7385 40.5658 74.8936 39.5577 75.0321 38.8624C75.0948 38.5122 75.1816 38.2504 75.2369 38.0532C75.2942 37.8696 75.3255 37.771 75.3255 37.771C75.4769 37.2916 76.0215 37.0179 76.5421 37.1573C76.9519 37.2678 77.2251 37.6027 77.2473 37.9767L77.2491 38.0396Z" fill="#1F1718"/>
<path d="M75.2188 49.7781C75.0453 49.7781 74.8699 49.7322 74.7149 49.6387C74.2884 49.3837 74.1685 48.8584 74.4454 48.464L77.2236 44.5285C77.5024 44.1324 78.0764 44.027 78.4992 44.2786C78.9274 44.5353 79.0475 45.0606 78.7706 45.455L75.9923 49.3905C75.8151 49.6404 75.5197 49.7781 75.2188 49.7781Z" fill="#1F1718"/>
<path d="M82.4865 52.1394C81.977 52.1394 81.5635 51.7603 81.5635 51.2894V46.4665C81.5635 45.9973 81.977 45.6165 82.4865 45.6165C82.9978 45.6165 83.4095 45.9973 83.4095 46.4665V51.2894C83.4095 51.7603 82.9978 52.1394 82.4865 52.1394Z" fill="#1F1718"/>
<path d="M89.9666 48.6952C89.7045 48.6952 89.4424 48.5915 89.2596 48.3909L85.946 44.7495C85.6193 44.3908 85.6692 43.8536 86.0605 43.5527C86.45 43.2501 87.0315 43.2977 87.3601 43.6581L90.6737 47.2995C91.0023 47.6582 90.9505 48.1954 90.5592 48.4963C90.3875 48.6306 90.1752 48.6952 89.9666 48.6952Z" fill="#1F1718"/>
<path d="M51.0066 40.4655C51.014 40.491 51.1598 40.6542 51.505 41.0435C51.8373 41.4124 52.3431 41.919 52.9911 42.4256C53.3215 42.6755 53.6889 42.9135 54.0784 43.1515C54.4808 43.3691 54.9146 43.5612 55.3669 43.738C55.8302 43.8978 56.3231 43.9998 56.827 44.1069C57.3421 44.18 57.8719 44.2106 58.422 44.2072C58.4478 44.2106 58.649 44.2123 58.5327 44.2174L58.7838 44.2004L59.2804 44.1681C59.6551 44.1579 59.8416 44.0984 60.076 44.061C60.5191 43.9964 61.071 43.8706 61.5048 43.6972C62.4204 43.3742 63.1994 42.8897 63.8215 42.3763C65.0565 41.3359 65.6399 40.2768 65.6159 40.3601C65.7562 39.8824 66.2897 39.5985 66.8084 39.7277C67.3271 39.8569 67.6354 40.3482 67.4969 40.8259C67.4822 40.8582 67.4526 41.2237 67.2699 41.817C67.0816 42.4086 66.7345 43.2399 66.0497 44.1256C65.7026 44.5625 65.2928 45.0317 64.7685 45.4465C64.2517 45.863 63.6609 46.2846 62.9761 46.5872C62.2875 46.9136 61.6008 47.1686 60.7609 47.3386C60.3511 47.4185 59.8933 47.5069 59.6016 47.5188L59.105 47.5664L58.8576 47.5885C58.5752 47.6106 58.6103 47.5953 58.47 47.5987C57.6817 47.6174 56.888 47.5256 56.109 47.3896C55.3281 47.2315 54.5915 46.9748 53.9085 46.6654C53.231 46.3475 52.6292 45.965 52.1105 45.5536C51.5973 45.1388 51.1617 44.707 50.8128 44.2786C50.1039 43.4303 49.7126 42.6296 49.4855 42.0584C49.2677 41.5059 49.1864 41.0911 49.192 41.1166C48.9981 40.6542 49.2455 40.1357 49.7476 39.9555C50.2479 39.777 50.8109 40.0048 51.0066 40.4655Z" fill="#1F1718"/>
<path d="M33.7906 60.9471C33.7906 56.0545 29.4857 52.0884 24.1766 52.0884C18.8638 52.0884 14.5571 56.0545 14.5571 60.9471C14.5571 65.838 18.8638 69.8041 24.1766 69.8041C29.4857 69.8041 33.7906 65.838 33.7906 60.9471Z" fill="#F46899"/>
<path d="M104.36 61.2973C104.36 56.4047 100.055 52.4386 94.7402 52.4386C89.4292 52.4386 85.1226 56.4047 85.1226 61.2973C85.1226 66.1882 89.4292 70.1543 94.7402 70.1543C100.055 70.1543 104.36 66.1882 104.36 61.2973Z" fill="#F46899"/>
</svg>
