<svg width="57" height="57" viewBox="0 0 57 57" fill="none" xmlns="http://www.w3.org/2000/svg">
<path d="M49.917 45.0692C49.6911 46.5277 48.9117 47.4282 48.381 48.7008C48.3406 48.7103 48.2991 48.7204 48.2501 48.7332C47.7842 48.5251 46.677 48.7622 46.1151 48.6088C43.4135 47.8706 42.3739 45.5111 43.437 42.9335C43.6671 42.375 44.5535 40.4914 45.0722 40.1583C46.0737 39.5161 47.8311 40.1734 48.8059 40.5879C48.9799 40.6616 49.2286 40.6672 49.5193 40.6281C49.9797 42.0397 50.1548 43.5361 49.917 45.0692ZM12.3537 52.078C10.8193 53.5487 8.44878 51.8666 7.42278 50.3467C6.34496 48.7505 5.92496 46.6644 6.37932 44.7741C6.50314 44.2586 6.66132 43.8167 6.91005 43.3492C6.98587 43.2063 7.37369 42.7404 7.55424 42.4665C7.86133 42.4085 8.39642 42.2461 8.55405 42.2288C9.30623 42.1451 10.0431 42.1981 10.7899 42.2991C11.7079 42.4241 12.7268 42.004 13.629 41.484C13.7719 42.4821 13.8821 43.4797 13.9431 44.4751C14.0779 46.6504 14.0762 50.4265 12.3537 52.078ZM54.7115 34.8853C54.6439 28.7788 54.3433 22.6778 53.7766 16.5969C53.4564 13.1494 53.0533 9.70918 52.5673 6.28124C52.2411 3.982 52.4113 0.544042 49.5815 0.0932324C46.941 -0.328007 43.6088 0.790083 40.9988 1.21634C37.7228 1.7514 34.4528 2.32328 31.1893 2.93199C24.4699 4.18566 17.7788 5.58997 11.1177 7.13879C10.0311 7.39097 5.80005 9.24611 6.2146 10.8334C7.66005 16.3687 9.05642 21.9162 10.395 27.4788C11.2497 31.0322 12.3248 34.6884 13.0786 38.3612C7.54332 39.0252 1.12114 42.6551 0.127325 48.1524C-0.367402 50.8918 0.586052 53.9962 2.87478 55.608C5.60805 57.5335 9.03678 56.5465 11.7657 55.1355C14.7881 53.5733 17.6746 51.2511 19.12 48.0447C20.7919 44.3372 20.1881 40.0451 19.3966 36.192C17.5677 27.2863 15.2888 18.4481 12.9935 9.65115C17.2682 8.70936 21.5539 7.82392 25.8548 7.01603C28.7746 6.46759 31.6988 5.94871 34.6279 5.45941C37.4091 4.99521 40.797 3.91114 43.6224 4.07182C46.4631 4.23307 46.1986 8.27194 46.5019 10.4496C46.929 13.5176 47.29 16.5952 47.5857 19.6789C48.1044 25.0936 48.3979 30.5234 48.5037 35.9605C48.2697 36.1864 48.0793 36.404 47.9517 36.6015C45.4197 37.4289 43.0202 39.0252 41.1646 40.6527C38.0801 43.3609 34.0568 49.5372 39.4131 52.1544C43.8095 54.3025 49.659 51.0045 52.8259 47.9543C56.5191 44.3964 57.0657 39.24 54.7115 34.8853Z" fill="#222222"/>
</svg>
