<svg width="54" height="62" viewBox="0 0 54 62" fill="none" xmlns="http://www.w3.org/2000/svg">
<path d="M45.8429 54.347C45.5527 55.2598 45.0307 56.0275 44.7029 56.904C44.0822 57.4641 44.062 57.6728 44.6418 57.5294C45.2364 57.4803 45.1453 57.4971 44.3686 57.5802C43.0158 57.4307 41.9064 57.1991 40.7276 56.4342C38.4171 54.9334 36.8936 52.1688 37.0289 49.3462C37.0584 48.7342 37.0976 47.9012 37.4096 47.3472C37.8689 46.5326 38.5376 46.4545 39.6313 46.2213C41.8845 45.7409 44.1738 45.7738 46.4435 46.0907C46.7211 48.8636 46.6938 51.6711 45.8429 54.347ZM11.9816 48.7643C9.60292 48.4173 7.69219 46.2793 6.81565 44.1044C6.28656 42.7894 6.0771 41.4058 6.27728 39.9881C6.30346 39.6806 6.36401 39.3804 6.46056 39.0881C6.59856 38.8498 6.62965 38.6931 6.55601 38.6144C6.71528 38.6278 6.87401 38.6524 7.0311 38.6909C9.86855 39.1411 12.1158 41.0241 13.7266 43.3663C13.924 43.6526 14.3773 43.6805 14.9527 43.5404C14.7973 45.679 14.3255 49.1058 11.9816 48.7643ZM6.02911 38.6138C6.03511 38.6133 6.04055 38.6144 6.04601 38.6138C6.02964 38.6189 6.01601 38.6211 5.99801 38.6261C5.21474 38.6044 5.22511 38.601 6.02911 38.6138ZM52.3933 10.9845C50.5065 9.59075 47.3789 9.12267 45.1862 8.36834C42.4998 7.44441 39.8146 6.51994 37.1287 5.59601C31.7566 3.74758 26.3844 1.89966 21.0127 0.0512263C19.7473 -0.383961 15.0924 2.0548 15.0907 3.54838C15.0842 10.0332 15.0771 16.5175 15.07 23.0024C15.0657 27.1695 15.19 31.3752 15.1851 35.5675C13.7986 34.8846 12.2691 34.5181 10.6502 34.6046C7.05783 34.797 2.72856 37.2162 0.938922 40.4712C-0.784168 43.6051 -0.0287111 47.7974 2.33256 50.3678C4.62838 52.8668 7.74237 53.2618 10.8193 52.2224C14.134 51.102 17.5393 48.8647 19.4571 45.8201C21.8636 41.9988 21.2282 37.0673 21.2326 32.7405C21.2369 28.8233 21.2413 24.9066 21.2457 20.9899C24.2713 22.229 27.4251 23.2166 30.4436 24.3336C31.7784 24.8274 46.1898 29.8699 46.0726 30.2761C45.9411 30.732 46.3273 30.7983 46.8465 30.7113C46.6998 34.4712 46.5526 38.2311 46.4058 41.991C41.8066 42.3693 37.2236 43.9705 33.7573 47.0035C29.5207 50.7098 30.1278 57.1857 34.8127 60.2449C39.3106 63.1818 44.8829 60.5411 48.3967 57.1551C52.6911 53.0174 53.1269 47.2211 52.4778 41.5938C52.6911 36.1444 52.9044 30.6946 53.1171 25.2447C53.23 22.3513 53.3435 19.4584 53.4564 16.5649C53.5289 14.7215 54.0755 12.227 52.3933 10.9845Z" fill="#222222"/>
</svg>
