<svg width="61" height="53" viewBox="0 0 61 53" fill="none" xmlns="http://www.w3.org/2000/svg">
<path d="M17.7307 31.6115C18.8789 26.9293 19.9632 22.2321 20.9827 17.5198C27.1174 17.3591 33.2527 17.2252 39.3891 17.1315C39.0351 21.8917 38.6031 26.6442 38.0991 31.3889C31.3103 31.5356 24.5211 31.6098 17.7307 31.6115ZM59.4323 30.6921C54.2783 30.9191 49.1227 31.0993 43.9665 31.2421C44.4983 26.522 44.9489 21.7925 45.3318 17.0573C48.2102 17.0233 51.088 16.9859 53.9669 16.9669C55.4565 16.9569 57.2423 15.7322 58.3393 14.7898C58.8416 14.358 60.2783 12.9693 58.7854 12.9793C54.4038 13.0084 50.0221 13.0552 45.6411 13.1183C45.9372 9.01245 46.1789 4.90217 46.3633 0.787974C46.4145 -0.350766 40.2667 2.06005 40.1876 3.83372C40.0469 6.96762 39.8642 10.0982 39.6585 13.2265C33.7076 13.3337 27.7578 13.4653 21.808 13.6349C22.7189 9.26463 23.5807 4.88265 24.3814 0.487813C24.5909 -0.663759 21.9509 0.565365 21.6482 0.710986C20.6942 1.16961 18.4343 2.27542 18.2052 3.53356C17.5802 6.96651 16.9136 10.39 16.2203 13.8079C13.1701 13.905 10.1194 13.9998 7.06871 14.1136C5.55725 14.17 3.81779 15.3266 2.69633 16.2902C2.22233 16.6974 0.740337 18.157 2.24961 18.1012C6.64052 17.9377 11.032 17.7921 15.4229 17.6626C14.4427 22.3236 13.3987 26.9695 12.292 31.6003C10.0207 31.5881 7.74943 31.5674 5.47815 31.539C4.00379 31.5206 2.18634 32.7871 1.10525 33.7155C0.583793 34.1635 -0.822386 35.5075 0.658523 35.5265C4.21325 35.5711 7.76689 35.5901 11.3211 35.5957C10.276 39.8215 9.17797 44.0344 8.02924 48.234C7.5427 48.6496 7.22306 49.0787 7.21325 49.472C7.19634 50.1125 7.17943 50.7536 7.16307 51.3947C7.12707 52.7711 12.9367 49.7839 13.3393 48.3484C14.5273 44.1092 15.658 39.855 16.7396 35.5885C23.7187 35.5583 30.6967 35.4517 37.6736 35.2687C37.0289 40.8821 36.2849 46.4843 35.4296 52.0714C35.2878 52.997 41.3211 50.8875 41.6058 49.0251C42.3149 44.3926 42.9432 39.7495 43.5078 35.0986C47.2098 34.9786 50.9118 34.8425 54.6127 34.6796C56.1296 34.6126 57.8582 33.4711 58.9856 32.5031C59.4531 32.1014 60.9443 30.6257 59.4323 30.6921Z" fill="#222222"/>
</svg>
