<svg width="45" height="65" viewBox="0 0 45 65" fill="none" xmlns="http://www.w3.org/2000/svg">
<path d="M8.97816 58.9554C7.32434 57.6911 6.24544 55.8042 6.2209 53.6785C6.21817 53.433 6.55799 51.9517 6.81163 51.0378C6.91472 51.0316 7.02327 51.0249 7.14327 51.0155C7.70181 51.1014 8.24998 51.2342 8.78725 51.4144C10.5714 52.0036 12.1647 53.0737 13.8 54.0199C13.8142 54.9489 13.7874 55.879 13.7002 56.8074C13.5965 57.9098 13.4689 59.467 13.0952 60.8284C11.5483 60.507 9.92834 59.6818 8.97816 58.9554ZM44.7862 22.0761C42.5307 15.6638 34.728 13.5163 28.9942 11.9027C25.6527 10.9626 22.2491 10.1056 19.1056 8.5769C16.68 7.39632 13.3271 5.30963 12.3382 2.43796C12.2394 1.67471 12.138 0.912597 12.042 0.149346C11.9416 -0.654077 5.98198 1.97489 5.8838 3.48577C5.82434 4.39855 5.94272 5.24326 6.19908 6.02771C7.39963 15.2933 8.81998 24.5276 10.4994 33.7156C11.3231 38.2187 12.3513 42.6995 13.092 47.2193C11.6722 46.9002 10.1809 46.8773 8.54289 47.3822C4.92816 48.497 1.02925 51.2972 0.170159 55.2691C-0.67366 59.1724 1.72254 62.4497 5.10927 63.9433C9.03054 65.6729 13.5289 64.8148 16.7209 61.9565C18.6753 60.2068 19.3162 57.6108 19.722 55.0856C20.2647 51.709 19.956 48.3697 19.4722 45.0132C18.936 41.2929 18.078 37.6335 17.3618 33.9478C17.3193 33.7274 17.2767 33.507 17.2353 33.2866C16.7804 30.8802 16.3451 28.4694 15.9234 26.0569C16.9625 26.3487 17.9804 26.6009 18.8875 26.8726C21.9213 27.7798 31.9467 29.4759 30.6998 34.1045C30.3943 35.2383 33.1893 33.9985 33.4331 33.8814C34.4798 33.3781 36.5269 32.3532 36.876 31.0588C38.1763 26.231 30.5252 24.7932 27.4292 23.8107C23.4327 22.5419 16.3413 21.912 14.6285 17.3314C14.6007 17.255 14.5358 17.2036 14.4474 17.1696C14.2151 15.6883 13.9871 14.2064 13.7662 12.7234C16.164 13.7841 18.6491 14.525 20.4971 15.0584C26.8189 16.8834 36.0965 18.4573 38.6455 25.7026C38.9989 26.708 45.3605 23.708 44.7862 22.0761Z" fill="#222222"/>
</svg>
